# Blender 4.5.4 LTS
# www.blender.org
mtllib Rock_03.mtl
o Cube
v 0.768209 1.000000 -1.411899
v 0.833823 -0.736631 -1.210149
v 0.912982 1.000000 1.045723
v 0.813822 -0.741440 1.081193
v -0.882311 1.000000 -1.282350
v -0.744365 -0.706093 -1.237532
v -0.850106 1.000000 1.056581
v -0.796721 -0.712703 1.158827
v -1.000000 -0.791381 0.000000
v 0.978146 0.890248 0.000000
v -0.834132 0.917727 0.000000
v 1.000000 -0.791381 0.000000
v -1.000000 -0.791381 0.500000
v 1.000000 1.000000 0.500000
v -1.000000 1.000000 0.500000
v 1.000000 -0.791381 0.500000
v -1.000000 1.000000 -0.500000
v 1.000000 -0.791381 -0.500000
v -1.000000 -0.791381 -0.500000
v 1.000000 1.000000 -0.500000
v 1.000000 0.000000 -1.332000
v -1.000000 0.000000 1.259108
v 1.000000 0.000000 1.226775
v -1.000000 0.000000 -1.299844
v 1.468398 0.000000 0.000000
v -1.410811 0.000000 0.000000
v -1.338871 0.000000 0.500000
v 1.390049 0.000000 0.500000
v 1.390049 0.000000 -0.500000
v -1.339831 0.000000 -0.500000
v -1.000000 0.500000 1.259108
v 1.000000 0.500000 -1.332000
v 1.000000 0.500000 1.226775
v -1.000000 0.500000 -1.299844
v 1.315228 0.500000 0.000000
v -1.259311 0.500000 0.000000
v -1.259311 0.500000 0.500000
v 1.195092 0.500000 0.500000
v 1.235802 0.500000 -0.500000
v -1.259311 0.500000 -0.500000
v 1.000000 -0.500000 -1.332000
v 1.000000 -0.500000 1.226775
v -0.949974 -0.500000 -1.269124
v 1.195092 -0.500000 0.000000
v -1.202515 -0.500000 0.000000
v -1.202515 -0.500000 0.500000
v 1.195092 -0.500000 0.500000
v 1.195092 -0.500000 -0.500000
v -1.202515 -0.500000 -0.500000
v -0.957423 -0.473722 1.244502
v -1.000000 -0.791381 0.750000
v 1.000000 1.000000 0.750000
v -1.000000 1.000000 0.750000
v 1.000000 -0.791381 0.750000
v -1.226504 0.000000 0.876415
v 1.305478 0.000000 0.750000
v -1.202515 0.500000 0.890725
v 1.195092 0.500000 0.750000
v 1.195092 -0.500000 0.750000
v -1.202515 -0.500000 0.750000
v -1.000000 1.000000 -0.750000
v 1.000000 -0.791381 -0.750000
v -1.000000 -0.791381 -0.750000
v 1.000000 1.000000 -0.750000
v 1.305478 0.000000 -0.750000
v -1.278642 0.000000 -0.750000
v 1.141634 0.500000 -0.750000
v -1.202515 0.500000 -0.750000
v -1.122237 -0.500000 -0.814883
v 1.195092 -0.500000 -0.750000
v 0.000000 -0.791381 -1.288777
v 0.000000 1.508445 1.358492
v 0.000000 -0.791381 1.217792
v 0.000000 1.595800 -1.409908
v 0.000000 -1.166018 0.000000
v 0.000000 1.000000 0.000000
v 0.000000 -1.112365 0.500000
v 0.000000 1.508445 0.512671
v 0.000000 1.595800 -0.451795
v 0.000000 -1.112365 -0.500000
v 0.000000 0.338221 -1.962504
v 0.000000 0.094446 1.888043
v 0.000000 0.838221 -1.801624
v 0.000000 0.594446 1.752433
v 0.000000 -0.367964 1.722577
v 0.000000 -0.161779 -1.801624
v 0.000000 -1.000000 0.750000
v 0.000000 1.656612 0.970842
v 0.000000 -1.000000 -0.750000
v 0.000000 1.804951 -1.003619
v 0.500000 -0.791381 1.217792
v 0.500000 1.503051 -1.305855
v 0.500000 1.000000 0.000000
v 0.432625 1.508445 0.657012
v 0.500246 1.595800 -0.671465
v 0.500000 0.262682 -1.887323
v 0.500000 0.838221 -1.739819
v 0.500000 -0.161779 -1.801624
v 0.500000 1.554025 0.970842
v 0.556356 1.680492 -1.003619
v 0.500000 -0.791381 -1.288777
v 0.445261 1.432269 1.264710
v 0.500000 -1.065731 0.000000
v 0.500000 -1.038045 0.500000
v 0.500000 -1.038045 -0.500000
v 0.500000 0.094446 1.756645
v 0.500000 0.594446 1.643632
v 0.500000 -0.405554 1.622400
v 0.500000 -1.000000 0.750000
v 0.500000 -1.000000 -0.750000
v -0.500000 -0.791381 -1.288777
v -0.500000 1.323387 1.220842
v -0.500000 -1.075751 0.000000
v -0.500000 -1.036579 0.500000
v -0.500000 -1.036579 -0.500000
v -0.500000 0.094446 1.759118
v -0.500000 0.594446 1.669639
v -0.500000 -0.379540 1.589394
v -0.500000 -1.000000 0.750000
v -0.500000 -1.000000 -0.750000
v -0.500000 -0.791381 1.217792
v -0.426022 1.530288 -1.199912
v -0.500000 1.000000 0.000000
v -0.523527 1.416546 0.591258
v -0.413992 1.595800 -0.675695
v -0.500000 0.273276 -1.850216
v -0.500000 0.838221 -1.730431
v -0.500000 -0.161779 -1.801624
v -0.500000 1.508445 0.970842
v -0.500000 1.595800 -1.003619
vn -0.7287 0.5666 0.3846
vn -0.6622 0.3928 0.6381
vn -0.9154 0.2978 -0.2708
vn 0.3368 -0.8700 0.3600
vn 0.8928 0.3109 0.3260
vn 0.5702 0.4490 -0.6879
vn 0.8409 0.5411 0.0110
vn 0.4619 -0.8866 -0.0245
vn -0.7886 0.5882 -0.1792
vn -0.4657 0.7525 0.4657
vn -0.9006 0.4272 0.0798
vn 0.8580 0.5129 0.0280
vn 0.4619 -0.8866 0.0245
vn -0.4357 0.7877 -0.4357
vn -0.7155 0.6905 0.1065
vn 0.4134 -0.9079 -0.0691
vn 0.9214 0.3478 -0.1735
vn -0.7886 0.5882 0.1792
vn -0.9430 -0.3259 -0.0669
vn 0.9441 -0.2883 -0.1597
vn 0.9034 -0.4230 0.0708
vn -0.9687 -0.1773 0.1738
vn -0.9432 -0.3251 0.0679
vn 0.9034 -0.4230 -0.0708
vn 0.6944 -0.0664 -0.7165
vn 0.8812 -0.0973 0.4626
vn -0.8987 -0.1717 -0.4036
vn -0.6318 -0.1752 0.7551
vn -0.9718 0.2255 -0.0690
vn 0.9020 0.2869 -0.3225
vn 0.9282 0.3231 0.1842
vn -0.9719 0.0976 0.2143
vn -0.9719 0.2246 0.0699
vn 0.9452 0.2906 -0.1491
vn 0.7194 0.0944 -0.6881
vn 0.8812 0.0973 0.4626
vn -0.9139 0.0696 -0.3999
vn -0.6785 0.0655 0.7316
vn -0.4295 -0.5465 0.7189
vn -0.7348 -0.5588 -0.3845
vn 0.7047 -0.6054 0.3700
vn 0.2991 -0.5944 -0.7465
vn 0.8309 -0.5564 -0.0000
vn -0.8212 -0.5707 -0.0000
vn -0.7157 -0.5580 0.4201
vn 0.9441 0.2883 0.1597
vn -0.8682 0.0137 0.4959
vn 0.9441 -0.2883 0.1597
vn -0.8719 -0.1281 0.4726
vn -0.8019 0.4263 0.4187
vn 0.9316 0.3635 -0.0000
vn 0.4134 -0.9079 0.0691
vn -0.6714 0.7365 -0.0824
vn 0.7563 -0.5850 -0.2929
vn -0.8611 -0.4935 -0.1224
vn -0.9622 0.1507 -0.2270
vn 0.9228 0.1512 -0.3545
vn -0.9367 -0.2599 -0.2346
vn 0.9140 -0.1009 -0.3930
vn 0.9083 0.3174 -0.2727
vn 0.3130 -0.9042 -0.2905
vn -0.7561 0.6036 -0.2531
vn -0.9031 0.4171 -0.1026
vn 0.2218 0.8484 -0.4806
vn -0.0000 -0.9325 -0.3611
vn 0.1443 0.9567 -0.2527
vn -0.0724 -0.9559 0.2847
vn -0.0000 -0.6316 -0.7753
vn 0.0385 -0.7465 0.6643
vn 0.2270 0.2350 0.9451
vn -0.1904 0.2502 -0.9493
vn 0.2054 -0.2910 0.9344
vn -0.0949 -0.2176 -0.9714
vn -0.0724 -0.9559 -0.2847
vn 0.1763 0.9307 0.3206
vn 0.1005 0.7537 -0.6495
vn -0.1631 -0.9824 0.0912
vn 0.1578 0.6773 0.7186
vn -0.1631 -0.9824 -0.0912
vn -0.2810 0.5253 -0.8032
vn -0.0000 -0.9133 0.4073
vn 0.2228 0.3993 0.8893
vn 0.2080 0.9036 0.3746
vn 0.7443 0.5956 0.3020
vn 0.6427 0.3502 0.6814
vn 0.4636 0.7551 0.4636
vn 0.4158 0.8088 -0.4158
vn 0.7663 0.6211 0.1642
vn 0.6657 -0.0993 0.7396
vn 0.6933 0.0809 0.7161
vn 0.3761 -0.6736 0.6362
vn 0.6734 0.7260 -0.1392
vn 0.8263 0.4558 -0.3308
vn 0.0710 -0.9552 0.2873
vn 0.1508 0.2725 -0.9503
vn 0.0531 -0.2574 -0.9649
vn 0.0710 -0.9552 -0.2873
vn 0.1715 -0.9819 0.0799
vn 0.1715 -0.9819 -0.0799
vn 0.1867 0.4932 -0.8497
vn -0.3397 -0.8676 0.3631
vn -0.5250 0.5524 -0.6474
vn -0.4677 -0.8832 -0.0346
vn -0.4677 -0.8832 0.0346
vn -0.4123 -0.9086 -0.0665
vn -0.7205 -0.0968 -0.6867
vn -0.7219 0.0774 -0.6877
vn -0.4367 -0.5454 -0.7154
vn -0.4123 -0.9086 0.0665
vn -0.3656 -0.8667 -0.3393
vn -0.3446 0.8375 -0.4241
vn -0.2394 0.9351 -0.2612
vn -0.0832 -0.7214 0.6875
vn -0.2023 0.2151 0.9554
vn -0.2360 -0.3275 0.9149
vn -0.2734 0.9295 0.2477
vn -0.1173 0.7600 -0.6393
vn -0.1737 0.6834 0.7090
vn -0.2702 0.4394 0.8567
vn -0.3380 0.8341 0.4359
vn -0.7116 0.1911 -0.6761
vn 0.7008 0.2162 -0.6798
vn 0.6369 0.3581 0.6828
vn -0.6165 0.4473 0.6480
vn 0.2752 -0.6072 -0.7454
vn -0.3577 -0.5898 -0.7240
vn -0.3092 -0.6371 0.7061
vn 0.3837 -0.6683 0.6373
vt 0.812500 0.718750
vt 0.875000 0.718750
vt 0.875000 0.750000
vt 0.812500 0.750000
vt 0.562500 0.937500
vt 0.625000 0.937500
vt 0.625000 1.000000
vt 0.562500 0.218750
vt 0.625000 0.218750
vt 0.625000 0.250000
vt 0.562500 0.250000
vt 0.312500 0.718750
vt 0.375000 0.718750
vt 0.375000 0.750000
vt 0.312500 0.750000
vt 0.562500 0.718750
vt 0.625000 0.718750
vt 0.625000 0.750000
vt 0.562500 0.750000
vt 0.562500 0.437500
vt 0.625000 0.437500
vt 0.625000 0.500000
vt 0.562500 0.562500
vt 0.625000 0.562500
vt 0.625000 0.625000
vt 0.562500 0.625000
vt 0.312500 0.562500
vt 0.375000 0.562500
vt 0.375000 0.625000
vt 0.312500 0.625000
vt 0.562500 0.062500
vt 0.625000 0.062500
vt 0.625000 0.125000
vt 0.562500 0.125000
vt 0.812500 0.562500
vt 0.875000 0.562500
vt 0.875000 0.625000
vt 0.812500 0.625000
vt 0.562500 0.031250
vt 0.625000 0.031250
vt 0.625000 0.687500
vt 0.562500 0.687500
vt 0.375000 0.687500
vt 0.312500 0.687500
vt 0.875000 0.687500
vt 0.812500 0.687500
vt 0.812500 0.531250
vt 0.875000 0.531250
vt 0.312500 0.531250
vt 0.375000 0.531250
vt 0.562500 0.531250
vt 0.625000 0.531250
vt 0.625000 0.187500
vt 0.562500 0.187500
vt 0.437500 0.125000
vt 0.500000 0.125000
vt 0.500000 0.187500
vt 0.437500 0.187500
vt 0.437500 0.531250
vt 0.500000 0.531250
vt 0.500000 0.562500
vt 0.437500 0.562500
vt 0.437500 0.625000
vt 0.500000 0.625000
vt 0.500000 0.687500
vt 0.437500 0.687500
vt 0.437500 0.031250
vt 0.500000 0.031250
vt 0.500000 0.062500
vt 0.437500 0.062500
vt 0.437500 0.437500
vt 0.500000 0.437500
vt 0.500000 0.500000
vt 0.437500 0.500000
vt 0.437500 0.718750
vt 0.500000 0.718750
vt 0.500000 0.750000
vt 0.437500 0.750000
vt 0.437500 0.218750
vt 0.500000 0.218750
vt 0.500000 0.250000
vt 0.437500 0.250000
vt 0.437500 0.937500
vt 0.500000 0.937500
vt 0.500000 1.000000
vt 0.437500 1.000000
vt 0.562500 0.500000
vt 0.562500 1.000000
vt 0.375000 1.000000
vt 0.375000 0.218750
vt 0.375000 0.250000
vt 0.375000 0.500000
vt 0.375000 0.062500
vt 0.375000 0.125000
vt 0.375000 0.031250
vt 0.375000 0.187500
vt 0.375000 0.000000
vt 0.437500 0.000000
vt 0.500000 0.000000
vt 0.562500 0.000000
vt 0.625000 0.000000
vt 0.312500 0.500000
vt 0.812500 0.500000
vt 0.875000 0.500000
vt 0.687500 0.500000
vt 0.750000 0.500000
vt 0.750000 0.531250
vt 0.687500 0.531250
vt 0.187500 0.500000
vt 0.250000 0.500000
vt 0.250000 0.531250
vt 0.187500 0.531250
vt 0.687500 0.687500
vt 0.750000 0.687500
vt 0.750000 0.718750
vt 0.687500 0.718750
vt 0.187500 0.687500
vt 0.250000 0.687500
vt 0.250000 0.718750
vt 0.187500 0.718750
vt 0.375000 0.312500
vt 0.437500 0.312500
vt 0.437500 0.375000
vt 0.375000 0.375000
vt 0.375000 0.812500
vt 0.437500 0.812500
vt 0.437500 0.875000
vt 0.375000 0.875000
vt 0.500000 0.812500
vt 0.562500 0.812500
vt 0.562500 0.875000
vt 0.500000 0.875000
vt 0.500000 0.312500
vt 0.562500 0.312500
vt 0.562500 0.375000
vt 0.500000 0.375000
vt 0.250000 0.562500
vt 0.187500 0.562500
vt 0.750000 0.562500
vt 0.687500 0.562500
vt 0.687500 0.625000
vt 0.750000 0.625000
vt 0.187500 0.625000
vt 0.250000 0.625000
vt 0.625000 0.312500
vt 0.625000 0.375000
vt 0.250000 0.750000
vt 0.187500 0.750000
vt 0.625000 0.812500
vt 0.625000 0.875000
vt 0.750000 0.750000
vt 0.687500 0.750000
vt 0.375000 0.437500
vt 0.125000 0.718750
vt 0.125000 0.750000
vt 0.125000 0.562500
vt 0.125000 0.625000
vt 0.125000 0.687500
vt 0.125000 0.531250
vt 0.125000 0.500000
vt 0.375000 0.937500
s 0
usemtl Material
f 129/1/1 53/2/1 7/3/1 112/4/1
f 117/5/2 112/6/2 7/7/2
f 68/8/3 61/9/3 5/10/3 34/11/3
f 109/12/4 54/13/4 4/14/4 91/15/4
f 58/16/5 52/17/5 3/18/5 33/19/5
f 97/20/6 92/21/6 1/22/6
f 39/23/7 20/24/7 10/25/7 35/26/7
f 105/27/8 18/28/8 12/29/8 103/30/8
f 37/31/9 15/32/9 11/33/9 36/34/9
f 125/35/10 17/36/10 11/37/10 123/38/10
f 57/39/11 53/40/11 15/32/11 37/31/11
f 35/26/12 10/25/12 14/41/12 38/42/12
f 103/30/13 12/29/13 16/43/13 104/44/13
f 123/38/14 11/37/14 15/45/14 124/46/14
f 130/47/15 61/48/15 17/36/15 125/35/15
f 110/49/16 62/50/16 18/28/16 105/27/16
f 67/51/17 64/52/17 20/24/17 39/23/17
f 36/34/18 11/33/18 17/53/18 40/54/18
f 45/55/19 26/56/19 30/57/19 49/58/19
f 70/59/20 65/60/20 29/61/20 48/62/20
f 44/63/21 25/64/21 28/65/21 47/66/21
f 60/67/22 55/68/22 27/69/22 46/70/22
f 46/70/23 27/69/23 26/56/23 45/55/23
f 48/62/24 29/61/24 25/64/24 44/63/24
f 98/71/25 96/72/25 21/73/25 41/74/25
f 59/75/26 56/76/26 23/77/26 42/78/26
f 69/79/27 66/80/27 24/81/27 43/82/27
f 118/83/28 116/84/28 22/85/28 50/86/28
f 26/56/29 36/34/29 40/54/29 30/57/29
f 65/60/30 67/51/30 39/23/30 29/61/30
f 25/64/31 35/26/31 38/42/31 28/65/31
f 55/68/32 57/39/32 37/31/32 27/69/32
f 27/69/33 37/31/33 36/34/33 26/56/33
f 29/61/34 39/23/34 35/26/34 25/64/34
f 96/72/35 97/20/35 32/87/35 21/73/35
f 56/76/36 58/16/36 33/19/36 23/77/36
f 66/80/37 68/8/37 34/11/37 24/81/37
f 116/84/38 117/5/38 31/88/38 22/85/38
f 118/83/39 50/86/39 8/89/39
f 63/90/40 69/79/40 43/82/40 6/91/40
f 54/13/41 59/75/41 42/78/41 4/14/41
f 98/71/42 41/74/42 2/92/42
f 18/28/43 48/62/43 44/63/43 12/29/43
f 13/93/44 46/70/44 45/55/44 9/94/44
f 51/95/44 60/67/44 46/70/44 13/93/44
f 12/29/43 44/63/43 47/66/43 16/43/43
f 62/50/43 70/59/43 48/62/43 18/28/43
f 9/94/44 45/55/44 49/58/44 19/96/44
f 8/97/45 50/98/45 60/67/45 51/95/45
f 16/43/43 47/66/43 59/75/43 54/13/43
f 28/65/46 38/42/46 58/16/46 56/76/46
f 22/99/47 31/100/47 57/39/47 55/68/47
f 47/66/48 28/65/48 56/76/48 59/75/48
f 50/98/49 22/99/49 55/68/49 60/67/49
f 31/100/50 7/101/50 53/40/50 57/39/50
f 38/42/51 14/41/51 52/17/51 58/16/51
f 104/44/52 16/43/52 54/13/52 109/12/52
f 124/46/53 15/45/53 53/2/53 129/1/53
f 2/92/54 41/74/54 70/59/54 62/50/54
f 19/96/55 49/58/55 69/79/55 63/90/55
f 30/57/56 40/54/56 68/8/56 66/80/56
f 21/73/57 32/87/57 67/51/57 65/60/57
f 49/58/58 30/57/58 66/80/58 69/79/58
f 41/74/59 21/73/59 65/60/59 70/59/59
f 32/87/60 1/22/60 64/52/60 67/51/60
f 101/102/61 2/92/61 62/50/61 110/49/61
f 122/103/62 5/104/62 61/48/62 130/47/62
f 40/54/63 17/53/63 61/9/63 68/8/63
f 92/105/64 74/106/64 90/107/64 100/108/64
f 111/109/65 71/110/65 89/111/65 120/112/65
f 94/113/66 78/114/66 88/115/66 99/116/66
f 114/117/67 77/118/67 87/119/67 119/120/67
f 111/121/68 128/122/68 86/123/68 71/124/68
f 91/125/69 108/126/69 85/127/69 73/128/69
f 106/129/70 107/130/70 84/131/70 82/132/70
f 126/133/71 127/134/71 83/135/71 81/136/71
f 108/126/72 106/129/72 82/132/72 85/127/72
f 128/122/73 126/133/73 81/136/73 86/123/73
f 120/112/74 89/111/74 80/137/74 115/138/74
f 100/108/75 90/107/75 79/139/75 95/140/75
f 93/141/76 76/142/76 78/114/76 94/113/76
f 113/143/77 75/144/77 77/118/77 114/117/77
f 95/140/78 79/139/78 76/142/78 93/141/78
f 115/138/79 80/137/79 75/144/79 113/143/79
f 127/134/80 122/145/80 74/146/80 83/135/80
f 119/120/81 87/119/81 73/147/81 121/148/81
f 107/130/82 102/149/82 72/150/82 84/131/82
f 99/116/83 88/115/83 72/151/83 102/152/83
f 52/17/84 99/116/84 102/152/84 3/18/84
f 3/18/85 102/149/85 107/130/85
f 20/24/86 95/140/86 93/141/86 10/25/86
f 10/25/87 93/141/87 94/113/87 14/41/87
f 64/52/88 100/108/88 95/140/88 20/24/88
f 42/78/89 23/77/89 106/129/89 108/126/89
f 23/77/90 33/19/90 107/130/90 106/129/90
f 4/14/91 42/78/91 108/126/91
f 14/41/92 94/113/92 99/116/92 52/17/92
f 1/22/93 92/105/93 100/108/93 64/52/93
f 71/110/65 101/102/65 110/49/65 89/111/65
f 77/118/94 104/44/94 109/12/94 87/119/94
f 71/124/68 86/123/68 98/71/68 101/153/68
f 81/136/95 83/135/95 97/20/95 96/72/95
f 86/123/96 81/136/96 96/72/96 98/71/96
f 89/111/97 110/49/97 105/27/97 80/137/97
f 75/144/98 103/30/98 104/44/98 77/118/98
f 80/137/99 105/27/99 103/30/99 75/144/99
f 83/135/100 74/146/100 92/21/100 97/20/100
f 87/119/81 109/12/81 91/15/81 73/147/81
f 51/154/101 119/120/101 121/148/101 8/155/101
f 5/10/102 122/145/102 127/134/102
f 19/156/103 115/138/103 113/143/103 9/157/103
f 9/157/104 113/143/104 114/117/104 13/158/104
f 63/159/105 120/112/105 115/138/105 19/156/105
f 43/82/106 24/81/106 126/133/106 128/122/106
f 24/81/107 34/11/107 127/134/107 126/133/107
f 6/91/108 43/82/108 128/122/108
f 13/158/109 114/117/109 119/120/109 51/154/109
f 6/160/110 111/109/110 120/112/110 63/159/110
f 74/106/111 122/103/111 130/47/111 90/107/111
f 78/114/112 124/46/112 129/1/112 88/115/112
f 73/128/113 85/127/113 118/83/113 121/161/113
f 82/132/114 84/131/114 117/5/114 116/84/114
f 85/127/115 82/132/115 116/84/115 118/83/115
f 90/107/116 130/47/116 125/35/116 79/139/116
f 76/142/117 123/38/117 124/46/117 78/114/117
f 79/139/118 125/35/118 123/38/118 76/142/118
f 84/131/119 72/150/119 112/6/119 117/5/119
f 88/115/120 129/1/120 112/4/120 72/151/120
f 34/11/121 5/10/121 127/134/121
f 32/87/122 97/20/122 1/22/122
f 33/19/123 3/18/123 107/130/123
f 31/88/124 117/5/124 7/7/124
f 101/153/125 98/71/125 2/92/125
f 111/121/126 6/91/126 128/122/126
f 121/161/127 118/83/127 8/89/127
f 91/125/128 4/14/128 108/126/128
