# Blender 4.5.4 LTS
# www.blender.org
mtllib SharpRock_02.mtl
o Cube
v 0.836287 0.760684 -0.557579
v 0.850326 -0.577907 -0.541569
v 0.766531 0.733398 0.583769
v 0.927659 -0.498220 0.610394
v -0.811482 0.747461 -0.591776
v -0.898186 -0.600212 -0.633729
v -0.886164 0.747461 0.554435
v -0.796932 -0.552487 0.630905
v -1.215803 -0.603445 0.000000
v 1.081486 0.664123 0.000000
v -1.169249 0.747461 0.000000
v 1.082781 -0.587466 0.000000
v 0.000000 -0.533144 -0.886216
v 0.000000 0.747461 0.839274
v 0.000000 -0.599036 0.932400
v 0.048756 0.747461 -0.950644
v 0.000000 -1.005241 0.000000
v 0.000000 1.260323 0.000000
v -1.078947 0.747461 -0.500000
v 0.911968 -0.599704 -0.500000
v -1.094904 -0.616251 -0.500000
v 0.999289 0.777685 -0.474122
v 0.000000 0.963966 -0.500000
v 0.000000 -1.005241 -0.500000
v -1.083281 -0.614783 0.500000
v 1.042978 0.742829 0.515825
v -1.072993 0.742340 0.485424
v 1.004136 -0.568471 0.493187
v 0.000000 -1.005241 0.500000
v 0.000000 0.963966 0.500000
v -0.500000 -0.552096 -0.775070
v -0.500000 0.747461 0.733817
v -0.500000 -1.005241 0.000000
v -0.500000 -0.528066 0.808071
v -0.445507 0.747461 -0.848610
v -0.386807 3.214373 0.000000
v -0.500000 -1.005241 -0.500000
v -0.460580 1.731336 -0.640942
v -0.500000 -1.005241 0.500000
v -0.500000 1.762648 0.500000
v 0.500000 -0.569769 0.819356
v 0.481527 0.728715 -0.869009
v 0.323801 2.648512 0.000000
v 0.458337 -0.581843 -0.813575
v 0.500000 0.675750 0.777792
v 0.500000 -1.005241 0.000000
v 0.437817 1.490382 -0.311666
v 0.500000 -1.005241 -0.500000
v 0.484358 1.484952 0.359755
v 0.500000 -1.005241 0.500000
v -0.712460 2.146012 0.000000
v 0.664945 1.844650 0.000000
v 0.929263 0.254999 -0.697622
v -0.848961 0.254999 0.572059
v 0.893424 0.254999 0.689485
v -0.998747 0.254999 -0.713714
v 1.190480 0.254999 0.000000
v -1.292747 0.254999 0.000000
v 0.000000 0.254999 -1.096979
v 0.000000 0.254999 1.030141
v 1.086287 0.254999 -0.500000
v -1.169606 0.254999 -0.500000
v -1.169606 0.254999 0.500000
v 1.086287 0.254999 0.500000
v -0.500000 0.254999 -0.962417
v -0.500000 0.254999 0.921521
v 0.500000 0.254999 0.921521
v 0.500000 0.254999 -0.962417
v 0.898229 -0.048549 -0.662856
v 0.923389 -0.048549 0.659698
v -0.918710 -0.048549 -0.625935
v 1.190480 -0.048549 0.000000
v -1.292747 -0.048549 0.000000
v 0.000000 -0.048549 -1.096979
v 0.000000 -0.048549 1.030141
v 1.086287 -0.048549 -0.500000
v -1.169606 -0.048549 -0.500000
v -1.169606 -0.048549 0.500000
v 1.086287 -0.048549 0.500000
v -0.500000 -0.048549 -0.962417
v -0.500000 -0.048549 0.921521
v 0.500000 -0.048549 0.921521
v 0.500000 -0.048549 -0.962417
v -0.809465 -0.048549 0.584066
v -0.242294 3.068144 0.000000
v -0.048351 2.037166 0.000000
v -0.549634 2.896684 0.000000
v -0.471702 2.370679 0.421297
v -0.442137 2.108062 -0.348948
v 0.182794 2.329606 0.000000
v 0.454665 2.062752 0.269816
v 0.509247 2.422430 0.000000
v 0.419760 1.992900 -0.233749
vn -0.3452 0.1807 0.9210
vn -0.5778 0.1456 0.8031
vn -0.5530 0.2543 -0.7934
vn 0.4581 -0.5401 0.7060
vn 0.4719 0.1637 0.8663
vn 0.5665 0.2515 -0.7847
vn 0.9650 0.2074 -0.1605
vn 0.6345 -0.7666 -0.0990
vn -0.9526 0.2172 0.2132
vn -0.8493 0.3605 -0.3857
vn -0.6318 0.6668 -0.3952
vn -0.0000 -1.0000 -0.0000
vn -0.2229 0.2707 -0.9365
vn -0.1395 -0.6361 0.7589
vn 0.1813 0.3383 0.9234
vn -0.1050 0.5897 0.8008
vn -0.0792 -0.5796 -0.8110
vn -0.1909 0.6956 -0.6926
vn -0.3238 0.0683 -0.9437
vn 0.4887 -0.4720 -0.7338
vn 0.6353 0.2301 -0.7372
vn -0.9566 0.2080 -0.2042
vn -0.6139 0.6791 0.4025
vn -0.2680 0.0479 0.9622
vn 0.9785 0.1640 0.1248
vn 0.6170 -0.7843 0.0639
vn -0.8424 0.3562 0.4043
vn -0.5198 -0.8523 0.0592
vn 0.3997 0.4570 -0.7946
vn -0.3002 -0.5520 -0.7780
vn -0.3573 -0.4680 0.8083
vn -0.4792 0.3138 -0.8197
vn -0.5159 -0.8551 -0.0514
vn 0.6861 0.1973 0.7002
vn -0.1960 0.3518 0.9153
vn 0.2346 0.4101 0.8814
vn 0.0285 -0.6147 -0.7883
vn 0.5376 0.5178 -0.6655
vn 0.4769 0.4107 0.7771
vn 0.4996 0.2963 0.8140
vn 0.5462 0.4480 0.7078
vn 0.2242 0.2281 -0.9475
vn 0.1033 -0.6626 0.7418
vn -0.5669 0.1618 -0.8078
vn 0.2121 0.3514 0.9119
vn 0.3631 0.4695 -0.8048
vn -0.4124 0.2045 0.8878
vn -0.8908 0.1501 0.4290
vn -0.7448 0.2770 -0.6071
vn 0.8464 0.4581 -0.2715
vn 0.8086 0.5062 0.3000
vn 0.8239 0.4462 0.3494
vn 0.7807 0.4413 -0.4425
vn -0.6153 0.1032 -0.7815
vn -0.6332 0.1008 0.7674
vn 0.2599 -0.0000 -0.9656
vn 0.5173 -0.0164 0.8556
vn -0.2123 -0.0000 0.9772
vn -0.5280 -0.1893 -0.8279
vn 0.9790 -0.0000 0.2040
vn -0.2235 0.0047 0.9747
vn -0.9710 -0.0000 -0.2391
vn 0.7203 -0.0763 -0.6895
vn 0.2123 -0.0000 0.9772
vn -0.2599 -0.0000 -0.9656
vn -0.9710 -0.0000 0.2391
vn 0.9790 -0.0000 -0.2040
vn 0.5618 -0.0759 -0.8238
vn 0.7005 -0.0004 0.7137
vn -0.6156 -0.1917 -0.7644
vn -0.7215 -0.0333 0.6916
vn -0.6445 -0.0598 0.7623
vn -0.5005 -0.0366 -0.8650
vn 0.7404 -0.0980 0.6649
vn 0.5687 -0.2474 -0.7845
vn 0.9362 -0.2422 -0.2545
vn -0.9597 -0.1398 0.2438
vn -0.2156 -0.3649 -0.9057
vn 0.2179 -0.1790 0.9594
vn 0.6081 -0.2110 -0.7653
vn -0.9636 -0.1302 -0.2335
vn -0.3166 0.0123 0.9485
vn 0.9678 -0.1747 0.1815
vn -0.4919 -0.1553 -0.8567
vn -0.2356 -0.1952 0.9520
vn 0.4883 -0.1324 0.8626
vn 0.1829 -0.3341 -0.9246
vn 0.8401 0.1747 0.5135
vn 0.7275 0.0494 0.6843
vn 0.7901 0.1696 -0.5891
vn -0.5413 0.2774 -0.7937
vn -0.7174 0.3677 0.5918
vn 0.5830 0.1676 -0.7950
vn -0.5519 0.2440 0.7974
vn -0.5051 0.2233 -0.8337
vn 0.7311 0.1653 -0.6620
vn 0.4366 0.3581 -0.8253
vt 0.812500 0.687500
vt 0.875000 0.687500
vt 0.875000 0.750000
vt 0.500000 0.937500
vt 0.625000 0.937500
vt 0.625000 1.000000
vt 0.500000 1.000000
vt 0.500000 0.187500
vt 0.625000 0.187500
vt 0.625000 0.250000
vt 0.500000 0.250000
vt 0.312500 0.687500
vt 0.375000 0.687500
vt 0.375000 0.750000
vt 0.312500 0.750000
vt 0.500000 0.687500
vt 0.625000 0.687500
vt 0.625000 0.750000
vt 0.500000 0.750000
vt 0.500000 0.437500
vt 0.625000 0.437500
vt 0.625000 0.500000
vt 0.500000 0.500000
vt 0.500000 0.562500
vt 0.625000 0.562500
vt 0.625000 0.625000
vt 0.500000 0.625000
vt 0.312500 0.562500
vt 0.375000 0.562500
vt 0.375000 0.625000
vt 0.312500 0.625000
vt 0.500000 0.062500
vt 0.625000 0.062500
vt 0.625000 0.125000
vt 0.500000 0.125000
vt 0.812500 0.562500
vt 0.875000 0.562500
vt 0.875000 0.625000
vt 0.839058 0.625000
vt 0.687500 0.562500
vt 0.750000 0.562500
vt 0.750000 0.625000
vt 0.187500 0.562500
vt 0.250000 0.562500
vt 0.250000 0.625000
vt 0.187500 0.625000
vt 0.500000 0.312500
vt 0.625000 0.312500
vt 0.625000 0.375000
vt 0.500000 0.375000
vt 0.187500 0.687500
vt 0.250000 0.687500
vt 0.250000 0.750000
vt 0.187500 0.750000
vt 0.500000 0.812500
vt 0.625000 0.812500
vt 0.625000 0.875000
vt 0.500000 0.875000
vt 0.687500 0.687500
vt 0.750000 0.687500
vt 0.750000 0.750000
vt 0.687500 0.750000
vt 0.187500 0.500000
vt 0.250000 0.500000
vt 0.687500 0.500000
vt 0.750000 0.500000
vt 0.875000 0.500000
vt 0.312500 0.500000
vt 0.375000 0.500000
vt 0.500000 0.000000
vt 0.625000 0.000000
vt 0.125000 0.625000
vt 0.125000 0.687500
vt 0.812500 0.500000
vt 0.125000 0.500000
vt 0.125000 0.562500
vt 0.125000 0.750000
vt 0.757812 0.625000
vt 0.781250 0.625000
vt 0.812500 0.625000
vt 0.812500 0.671875
vt 0.812500 0.750000
vt 0.669459 0.625000
vt 0.687500 0.625000
vt 0.687500 0.671875
vt 0.825779 0.625000
vt 0.812500 0.578125
vt 0.666882 0.625000
vt 0.718750 0.625000
vt 0.687500 0.578125
vt 0.437500 0.375000
vt 0.437500 0.437500
vt 0.437500 0.750000
vt 0.437500 0.812500
vt 0.437500 0.875000
vt 0.437500 0.937500
vt 0.437500 0.250000
vt 0.437500 0.312500
vt 0.437500 0.625000
vt 0.437500 0.687500
vt 0.437500 0.000000
vt 0.437500 0.062500
vt 0.437500 0.125000
vt 0.437500 0.187500
vt 0.437500 0.500000
vt 0.437500 0.562500
vt 0.437500 1.000000
vt 0.375000 0.937500
vt 0.375000 1.000000
vt 0.375000 0.187500
vt 0.375000 0.250000
vt 0.375000 0.437500
vt 0.375000 0.062500
vt 0.375000 0.125000
vt 0.375000 0.312500
vt 0.375000 0.375000
vt 0.375000 0.812500
vt 0.375000 0.875000
vt 0.375000 0.000000
s 0
usemtl Material
f 40/1/1 27/2/1 7/3/1
f 66/4/2 32/5/2 7/6/2 54/7/2
f 62/8/3 19/9/3 5/10/3 56/11/3
f 50/12/4 28/13/4 4/14/4 41/15/4
f 64/16/5 26/17/5 3/18/5 55/19/5
f 68/20/6 42/21/6 1/22/6 53/23/6
f 61/24/7 22/25/7 10/26/7 57/27/7
f 48/28/8 20/29/8 12/30/8 46/31/8
f 63/32/9 27/33/9 11/34/9 58/35/9
f 38/36/10 19/37/10 11/38/10 51/39/10
f 47/40/11 23/41/11 18/42/11
f 37/43/12 24/44/12 17/45/12 33/46/12
f 65/47/13 35/48/13 16/49/13 59/50/13
f 39/51/14 29/52/14 15/53/14 34/54/14
f 67/55/15 45/56/15 14/57/15 60/58/15
f 49/59/16 30/60/16 14/61/16 45/62/16
f 31/63/17 13/64/17 24/44/17 37/43/17
f 42/65/18 16/66/18 23/41/18 47/40/18
f 5/67/19 19/37/19 38/36/19
f 44/68/20 2/69/20 20/29/20 48/28/20
f 53/23/21 1/22/21 22/25/21 61/24/21
f 58/35/22 11/34/22 19/9/22 62/8/22
f 18/42/23 30/60/23 49/59/23
f 33/46/12 17/45/12 29/52/12 39/51/12
f 54/70/24 7/71/24 27/33/24 63/32/24
f 57/27/25 10/26/25 26/17/25 64/16/25
f 46/31/26 12/30/26 28/13/26 50/12/26
f 51/39/27 11/38/27 27/2/27 40/1/27
f 9/72/28 33/46/28 39/51/28 25/73/28
f 16/66/29 35/74/29 38/36/29 23/41/29
f 6/75/30 31/63/30 37/43/30 21/76/30
f 25/73/31 39/51/31 34/54/31 8/77/31
f 56/11/32 5/10/32 35/48/32 65/47/32
f 21/76/33 37/43/33 33/46/33 9/72/33
f 86/78/34 85/79/34 36/80/34 88/81/34
f 60/58/35 14/57/35 32/5/35 66/4/35
f 30/60/36 40/1/36 32/82/36 14/61/36
f 17/45/12 46/31/12 50/12/12 29/52/12
f 13/64/37 44/68/37 48/28/37 24/44/37
f 1/22/38 42/65/38 47/40/38
f 49/59/39 45/62/39 3/18/39
f 55/19/40 3/18/40 45/56/40 67/55/40
f 92/83/41 43/84/41 91/85/41
f 24/44/12 48/28/12 46/31/12 17/45/12
f 59/50/42 16/49/42 42/21/42 68/20/42
f 29/52/43 50/12/43 41/15/43 15/53/43
f 35/74/44 5/67/44 38/36/44
f 26/17/45 49/59/45 3/18/45
f 22/25/46 1/22/46 47/40/46
f 32/82/47 40/1/47 7/3/47
f 87/86/48 51/39/48 40/1/48 88/81/48
f 87/86/49 89/87/49 38/36/49 51/39/49
f 23/41/50 38/36/50 18/42/50
f 30/60/51 18/42/51 40/1/51
f 10/26/52 52/88/52 49/59/52 26/17/52
f 22/25/53 47/40/53 52/88/53 10/26/53
f 90/89/54 93/90/54 47/40/54 18/42/54
f 90/89/55 18/42/55 49/59/55 91/85/55
f 74/91/56 59/50/56 68/20/56 83/92/56
f 70/93/57 55/19/57 67/55/57 82/94/57
f 75/95/58 60/58/58 66/4/58 81/96/58
f 71/97/59 56/11/59 65/47/59 80/98/59
f 72/99/60 57/27/60 64/16/60 79/100/60
f 84/101/61 54/70/61 63/32/61 78/102/61
f 73/103/62 58/35/62 62/8/62 77/104/62
f 69/105/63 53/23/63 61/24/63 76/106/63
f 82/94/64 67/55/64 60/58/64 75/95/64
f 80/98/65 65/47/65 59/50/65 74/91/65
f 78/102/66 63/32/66 58/35/66 73/103/66
f 76/106/67 61/24/67 57/27/67 72/99/67
f 83/92/68 68/20/68 53/23/68 69/105/68
f 79/100/69 64/16/69 55/19/69 70/93/69
f 77/104/70 62/8/70 56/11/70 71/97/70
f 81/96/71 66/4/71 54/7/71 84/107/71
f 34/108/72 81/96/72 84/107/72 8/109/72
f 21/110/73 77/104/73 71/97/73 6/111/73
f 28/13/74 79/100/74 70/93/74 4/14/74
f 44/112/75 83/92/75 69/105/75 2/69/75
f 20/29/76 76/106/76 72/99/76 12/30/76
f 25/113/77 78/102/77 73/103/77 9/114/77
f 31/115/78 80/98/78 74/91/78 13/116/78
f 41/117/79 82/94/79 75/95/79 15/118/79
f 2/69/80 69/105/80 76/106/80 20/29/80
f 9/114/81 73/103/81 77/104/81 21/110/81
f 8/119/82 84/101/82 78/102/82 25/113/82
f 12/30/83 72/99/83 79/100/83 28/13/83
f 6/111/84 71/97/84 80/98/84 31/115/84
f 15/118/85 75/95/85 81/96/85 34/108/85
f 4/14/86 70/93/86 82/94/86 41/117/86
f 13/116/87 74/91/87 83/92/87 44/112/87
f 52/88/88 92/83/88 91/85/88 49/59/88
f 18/42/89 86/78/89 88/81/89 40/1/89
f 38/36/90 89/87/90 86/78/90 18/42/90
f 36/80/91 89/87/91 87/86/91
f 36/80/92 87/86/92 88/81/92
f 89/87/93 36/80/93 85/79/93 86/78/93
f 43/84/94 90/89/94 91/85/94
f 43/84/95 93/90/95 90/89/95
f 47/40/96 93/90/96 92/83/96 52/88/96
f 93/90/97 43/84/97 92/83/97
