# Blender 4.5.4 LTS
# www.blender.org
mtllib SharpRock_01.mtl
o Cube
v 0.851245 0.693530 -0.881724
v 0.763491 -0.903776 -0.803365
v 0.869995 0.620411 0.895809
v 0.740313 -0.950266 0.741423
v -0.749116 0.710074 -0.775008
v -0.749179 -1.001904 -0.775032
v -0.873860 0.652451 0.828827
v -0.701937 -0.979030 0.773267
v -0.017279 -0.981611 -0.995130
v 0.009796 1.373353 1.101489
v -0.023997 -1.015153 0.953186
v 0.000000 1.246339 -1.000000
v -0.775771 -1.011460 -0.070267
v 1.055382 1.132273 0.012546
v -0.981363 1.304049 0.007556
v 0.877280 -0.972846 -0.043342
v 0.006774 -1.311406 -0.015251
v 0.082618 5.372125 0.037394
v -0.743169 -1.004721 0.395772
v 0.935477 0.844828 0.481830
v 0.040201 -1.206031 0.447904
v 0.012652 4.913959 0.430807
v -0.937239 1.014541 0.479000
v 0.852342 -0.964033 0.465857
v -0.898845 1.007829 -0.479611
v 0.868018 -0.951854 -0.489833
v -0.819169 -1.007106 -0.503179
v 0.976719 0.867980 -0.478922
v 0.011747 -1.145248 -0.532259
v 0.064351 5.110011 -0.247428
v 0.457044 -0.963827 0.944631
v 0.487429 0.979380 -0.868935
v 0.437084 -0.935653 -0.948488
v 0.500000 1.000000 1.000000
v 0.368330 5.069835 0.007709
v 0.520424 -1.166537 -0.006915
v 0.524844 3.201580 0.504388
v 0.441339 -1.141407 0.441377
v 0.438856 -1.070922 -0.476771
v 0.490987 3.190934 -0.459138
v -0.500187 -0.997223 -0.904479
v -0.500000 1.000000 1.000000
v -0.412292 -1.020579 0.895198
v -0.438825 0.981068 -0.890790
v -0.444020 -1.208712 0.016776
v -0.224527 5.017954 0.030875
v -0.437283 -1.185041 0.461010
v -0.475156 3.201580 0.504388
v -0.406147 3.191050 -0.420286
v -0.396617 -1.117417 -0.512577
v 1.028758 -0.100550 -1.010990
v -1.009355 -0.081719 0.986884
v 1.009765 0.022849 0.969533
v -0.898917 -0.042578 -0.989807
v 0.025475 -0.156434 -1.293934
v -0.036596 -0.087467 1.338103
v 1.282177 -0.037219 -0.093833
v -1.240205 -0.131522 -0.062675
v -1.192975 -0.124683 0.475774
v 1.136007 -0.021401 0.543733
v 1.212032 -0.075277 -0.615311
v -1.153071 -0.091598 -0.567930
v 0.500368 -0.109197 1.215799
v 0.476795 -0.086227 -1.236042
v -0.568521 -0.056028 -1.126069
v -0.635365 -0.077257 1.215880
v 1.000000 -0.500000 -1.000000
v 0.919969 -0.500000 0.919695
v -0.913512 -0.486011 -0.978530
v 0.016210 -0.487122 -1.260079
v -0.035639 -0.535712 1.181476
v 1.157402 -0.504401 -0.128703
v -1.071386 -0.511022 -0.046859
v -1.051621 -0.500000 0.494703
v 1.075713 -0.487522 0.497645
v 1.146056 -0.504416 -0.582020
v -1.080536 -0.520157 -0.481180
v 0.531311 -0.532577 1.112278
v 0.585625 -0.504361 -1.171216
v -0.596661 -0.500000 -1.109244
v -0.520252 -0.530806 1.127106
v -0.924387 -0.500000 0.948219
vn -0.7482 0.1976 0.6334
vn -0.5450 0.2469 0.8013
vn -0.7989 0.2628 -0.5410
vn 0.3182 -0.9108 0.2631
vn 0.9335 0.2416 0.2650
vn 0.3008 0.2710 -0.9144
vn -0.2849 0.2148 -0.9342
vn -0.0351 -0.9352 0.3523
vn 0.2692 0.1623 0.9493
vn 0.4006 0.1805 0.8983
vn 0.6383 0.2825 -0.7160
vn -0.1600 -0.9566 -0.2434
vn 0.9501 0.2318 -0.2088
vn 0.3571 -0.9215 -0.1527
vn -0.9716 0.1901 0.1411
vn -0.9143 0.1987 -0.3530
vn -0.9133 0.2191 0.3432
vn 0.6798 0.2840 0.6761
vn -0.1237 -0.9817 0.1451
vn 0.9425 0.1919 0.2737
vn 0.4347 -0.8971 0.0790
vn -0.9542 0.1952 0.2266
vn -0.6473 0.1948 -0.7369
vn 0.2316 -0.9399 -0.2508
vn 0.8736 0.2695 -0.4052
vn -0.0511 -0.9502 -0.3076
vn 0.3334 0.1736 -0.9267
vn -0.9542 0.2067 -0.2165
vn 0.6382 0.2170 -0.7386
vn 0.1634 -0.9381 -0.3054
vn 0.2205 -0.9639 0.1491
vn 0.9317 0.1616 0.3253
vn 0.2358 -0.9346 -0.2662
vn 0.9221 0.1736 -0.3458
vn 0.7788 0.1946 0.5963
vn 0.4083 0.1852 0.8939
vn 0.2415 0.2524 -0.9370
vn 0.1281 -0.9295 0.3458
vn -0.1879 -0.9668 -0.1731
vn -0.3882 0.1879 -0.9022
vn -0.7774 0.3167 0.5434
vn -0.5178 -0.8540 0.0509
vn -0.7101 0.2934 -0.6400
vn -0.3676 -0.9253 -0.0935
vn -0.4042 -0.8827 0.2398
vn -0.4475 0.2832 -0.8482
vn -0.2529 0.1873 0.9492
vn -0.4088 0.1836 0.8940
vn -0.1583 -0.2782 0.9474
vn -0.3817 -0.0109 -0.9242
vn 0.1470 -0.1100 -0.9830
vn 0.4576 -0.1699 0.8728
vn -0.9513 -0.2954 -0.0886
vn 0.9208 -0.1250 -0.3695
vn 0.9620 -0.2063 0.1788
vn -0.9134 -0.2681 0.3063
vn -0.9241 -0.3768 0.0636
vn 0.9755 -0.2075 -0.0734
vn 0.1597 -0.2770 0.9475
vn -0.2584 -0.0506 -0.9647
vn 0.3785 -0.0486 -0.9243
vn 0.9328 -0.1723 0.3167
vn -0.9002 -0.1073 -0.4221
vn -0.4579 -0.2306 0.8586
vn -0.3923 -0.4667 0.7926
vn -0.8620 -0.4179 -0.2870
vn 0.8390 -0.4380 0.3228
vn 0.3518 -0.5446 -0.7614
vn -0.1836 -0.4303 -0.8838
vn 0.0885 -0.4023 0.9112
vn 0.8507 -0.5246 -0.0317
vn -0.8530 -0.5191 0.0535
vn -0.8420 -0.5063 0.1863
vn 0.8809 -0.4641 0.0932
vn 0.7665 -0.5662 -0.3032
vn -0.8686 -0.4925 0.0553
vn 0.4786 -0.4368 0.7617
vn 0.1282 -0.4818 -0.8668
vn -0.3833 -0.4284 -0.8183
vn -0.1145 -0.4376 0.8918
vt 0.812500 0.687500
vt 0.875000 0.687500
vt 0.875000 0.750000
vt 0.812500 0.750000
vt 0.500000 0.937500
vt 0.625000 0.937500
vt 0.625000 1.000000
vt 0.500000 1.000000
vt 0.500000 0.187500
vt 0.625000 0.187500
vt 0.625000 0.250000
vt 0.500000 0.250000
vt 0.312500 0.687500
vt 0.375000 0.687500
vt 0.375000 0.750000
vt 0.312500 0.750000
vt 0.500000 0.687500
vt 0.625000 0.687500
vt 0.625000 0.750000
vt 0.500000 0.750000
vt 0.500000 0.437500
vt 0.625000 0.437500
vt 0.625000 0.500000
vt 0.500000 0.500000
vt 0.500000 0.312500
vt 0.625000 0.312500
vt 0.625000 0.375000
vt 0.500000 0.375000
vt 0.187500 0.687500
vt 0.250000 0.687500
vt 0.250000 0.750000
vt 0.187500 0.750000
vt 0.500000 0.812500
vt 0.625000 0.812500
vt 0.625000 0.875000
vt 0.500000 0.875000
vt 0.687500 0.687500
vt 0.750000 0.687500
vt 0.750000 0.750000
vt 0.687500 0.750000
vt 0.687500 0.562500
vt 0.750000 0.562500
vt 0.750000 0.625000
vt 0.687500 0.625000
vt 0.187500 0.562500
vt 0.250000 0.562500
vt 0.250000 0.625000
vt 0.187500 0.625000
vt 0.500000 0.562500
vt 0.625000 0.562500
vt 0.625000 0.625000
vt 0.500000 0.625000
vt 0.312500 0.562500
vt 0.375000 0.562500
vt 0.375000 0.625000
vt 0.312500 0.625000
vt 0.500000 0.062500
vt 0.625000 0.062500
vt 0.625000 0.125000
vt 0.500000 0.125000
vt 0.812500 0.562500
vt 0.875000 0.562500
vt 0.875000 0.625000
vt 0.812500 0.625000
vt 0.500000 0.000000
vt 0.625000 0.000000
vt 0.812500 0.500000
vt 0.875000 0.500000
vt 0.312500 0.500000
vt 0.375000 0.500000
vt 0.187500 0.500000
vt 0.250000 0.500000
vt 0.687500 0.500000
vt 0.750000 0.500000
vt 0.125000 0.500000
vt 0.125000 0.562500
vt 0.125000 0.625000
vt 0.125000 0.687500
vt 0.125000 0.750000
vt 0.437500 0.875000
vt 0.437500 0.937500
vt 0.437500 0.250000
vt 0.437500 0.312500
vt 0.437500 0.375000
vt 0.437500 0.437500
vt 0.437500 0.750000
vt 0.437500 0.812500
vt 0.437500 0.125000
vt 0.437500 0.187500
vt 0.437500 0.500000
vt 0.437500 0.562500
vt 0.437500 0.625000
vt 0.437500 0.687500
vt 0.437500 0.000000
vt 0.437500 0.062500
vt 0.437500 1.000000
vt 0.375000 0.937500
vt 0.375000 1.000000
vt 0.375000 0.187500
vt 0.375000 0.250000
vt 0.375000 0.437500
vt 0.375000 0.312500
vt 0.375000 0.375000
vt 0.375000 0.812500
vt 0.375000 0.875000
vt 0.375000 0.062500
vt 0.375000 0.125000
vt 0.375000 0.000000
s 0
usemtl Material
f 48/1/1 23/2/1 7/3/1 42/4/1
f 66/5/2 42/6/2 7/7/2 52/8/2
f 62/9/3 25/10/3 5/11/3 54/12/3
f 38/13/4 24/14/4 4/15/4 31/16/4
f 60/17/5 20/18/5 3/19/5 53/20/5
f 64/21/6 32/22/6 1/23/6 51/24/6
f 65/25/7 44/26/7 12/27/7 55/28/7
f 47/29/8 21/30/8 11/31/8 43/32/8
f 63/33/9 34/34/9 10/35/9 56/36/9
f 37/37/10 22/38/10 10/39/10 34/40/10
f 40/41/11 30/42/11 18/43/11 35/44/11
f 50/45/12 29/46/12 17/47/12 45/48/12
f 61/49/13 28/50/13 14/51/13 57/52/13
f 39/53/14 26/54/14 16/55/14 36/56/14
f 59/57/15 23/58/15 15/59/15 58/60/15
f 49/61/16 25/62/16 15/63/16 46/64/16
f 52/65/17 7/66/17 23/58/17 59/57/17
f 35/44/18 18/43/18 22/38/18 37/37/18
f 45/48/19 17/47/19 21/30/19 47/29/19
f 57/52/20 14/51/20 20/18/20 60/17/20
f 36/56/21 16/55/21 24/14/21 38/13/21
f 46/64/22 15/63/22 23/2/22 48/1/22
f 44/67/23 5/68/23 25/62/23 49/61/23
f 33/69/24 2/70/24 26/54/24 39/53/24
f 51/24/25 1/23/25 28/50/25 61/49/25
f 41/71/26 9/72/26 29/46/26 50/45/26
f 32/73/27 12/74/27 30/42/27 40/41/27
f 58/60/28 15/59/28 25/10/28 62/9/28
f 1/23/29 32/73/29 40/41/29 28/50/29
f 9/72/30 33/69/30 39/53/30 29/46/30
f 17/47/31 36/56/31 38/13/31 21/30/31
f 14/51/32 35/44/32 37/37/32 20/18/32
f 29/46/33 39/53/33 36/56/33 17/47/33
f 28/50/34 40/41/34 35/44/34 14/51/34
f 20/18/35 37/37/35 34/40/35 3/19/35
f 53/20/36 3/19/36 34/34/36 63/33/36
f 55/28/37 12/27/37 32/22/37 64/21/37
f 21/30/38 38/13/38 31/16/38 11/31/38
f 6/75/39 41/71/39 50/45/39 27/76/39
f 12/74/40 44/67/40 49/61/40 30/42/40
f 18/43/41 46/64/41 48/1/41 22/38/41
f 13/77/42 45/48/42 47/29/42 19/78/42
f 30/42/43 49/61/43 46/64/43 18/43/43
f 27/76/44 50/45/44 45/48/44 13/77/44
f 19/78/45 47/29/45 43/32/45 8/79/45
f 54/12/46 5/11/46 44/26/46 65/25/46
f 56/36/47 10/35/47 42/6/47 66/5/47
f 22/38/48 48/1/48 42/4/48 10/39/48
f 71/80/49 56/36/49 66/5/49 81/81/49
f 69/82/50 54/12/50 65/25/50 80/83/50
f 70/84/51 55/28/51 64/21/51 79/85/51
f 68/86/52 53/20/52 63/33/52 78/87/52
f 73/88/53 58/60/53 62/9/53 77/89/53
f 67/90/54 51/24/54 61/49/54 76/91/54
f 72/92/55 57/52/55 60/17/55 75/93/55
f 82/94/56 52/65/56 59/57/56 74/95/56
f 74/95/57 59/57/57 58/60/57 73/88/57
f 76/91/58 61/49/58 57/52/58 72/92/58
f 78/87/59 63/33/59 56/36/59 71/80/59
f 80/83/60 65/25/60 55/28/60 70/84/60
f 79/85/61 64/21/61 51/24/61 67/90/61
f 75/93/62 60/17/62 53/20/62 68/86/62
f 77/89/63 62/9/63 54/12/63 69/82/63
f 81/81/64 66/5/64 52/8/64 82/96/64
f 43/97/65 81/81/65 82/96/65 8/98/65
f 27/99/66 77/89/66 69/82/66 6/100/66
f 24/14/67 75/93/67 68/86/67 4/15/67
f 33/101/68 79/85/68 67/90/68 2/70/68
f 41/102/69 80/83/69 70/84/69 9/103/69
f 31/104/70 78/87/70 71/80/70 11/105/70
f 26/54/71 76/91/71 72/92/71 16/55/71
f 19/106/72 74/95/72 73/88/72 13/107/72
f 8/108/73 82/94/73 74/95/73 19/106/73
f 16/55/74 72/92/74 75/93/74 24/14/74
f 2/70/75 67/90/75 76/91/75 26/54/75
f 13/107/76 73/88/76 77/89/76 27/99/76
f 4/15/77 68/86/77 78/87/77 31/104/77
f 9/103/78 70/84/78 79/85/78 33/101/78
f 6/100/79 69/82/79 80/83/79 41/102/79
f 11/105/80 71/80/80 81/81/80 43/97/80
