# Blender 4.5.4 LTS
# www.blender.org
mtllib Ice_Boulder_01.mtl
o Cube
v -1.326819 0.004394 1.046875
v -0.563270 2.626653 0.724296
v -1.000000 0.000388 -1.033897
v -0.554022 1.194786 -0.539698
v 1.178295 -0.027483 1.524073
v 0.707179 2.286696 0.559311
v 1.000000 0.000388 -1.033897
v 0.479006 2.508385 -0.353593
v -1.000000 0.000388 0.000000
v -1.008406 2.402158 0.361124
v 1.000000 0.000388 0.000000
v 1.000000 2.402158 0.000000
v -0.690324 1.296182 1.137391
v -0.705340 0.752599 -0.646157
v 0.433618 1.032143 -0.961239
v 1.320241 1.025682 0.500515
v 0.977653 0.902112 -0.175344
v -0.911640 1.288261 0.336349
v 0.000000 0.000388 -1.033897
v -0.017028 2.237211 -0.815012
v -0.542873 -0.022623 1.525859
v 0.499531 2.288318 0.975890
v 0.000000 4.210403 0.000000
v 0.000000 0.000388 0.000000
v 0.532829 0.757853 1.227235
v 0.075642 0.026920 -0.972572
v -0.500000 0.000388 -1.033897
v -0.000469 2.288318 0.975890
v -0.500000 0.000388 0.000000
v -0.081138 1.466396 1.123778
v -0.510429 2.315755 -0.394201
v -0.934846 -0.009115 1.286367
v -0.742644 3.352412 0.267940
v -0.314849 0.389759 -0.809364
v 1.130314 0.543190 0.490903
v 1.045104 0.148839 0.490903
vn -0.9215 0.0646 -0.3831
vn 0.2275 0.2007 -0.9529
vn 0.9763 0.2123 -0.0407
vn -0.1556 0.2632 0.9521
vn -0.0018 -0.9999 -0.0169
vn -0.4454 0.3951 0.8034
vn -0.8198 0.1365 -0.5561
vn -0.0000 -1.0000 -0.0000
vn 0.7376 0.1561 -0.6570
vn -0.8720 0.0873 0.4817
vn -0.9587 0.2787 -0.0565
vn 0.9279 0.2688 -0.2582
vn -0.2404 0.1544 0.9583
vn 0.9568 -0.1923 -0.2182
vn -0.0631 0.0965 -0.9933
vn -0.9581 0.2370 -0.1610
vn 0.0648 0.5373 -0.8409
vn 0.1969 0.4841 0.8526
vn 0.5613 0.3168 -0.7646
vn 0.7864 0.4206 0.4524
vn -0.0110 -0.9998 -0.0154
vn 0.7124 0.2111 0.6692
vn -0.5208 0.0814 -0.8498
vn -0.3738 0.1928 -0.9072
vn -0.0133 -0.9999 -0.0067
vn 0.0267 0.4638 -0.8856
vn -0.1143 0.2919 0.9496
vn -0.6058 0.3152 -0.7305
vn -0.1195 0.4495 0.8853
vn 0.0147 0.1670 0.9858
vt 0.500000 0.125000
vt 0.625000 0.125000
vt 0.625000 0.250000
vt 0.500000 0.250000
vt 0.500000 0.375000
vt 0.625000 0.375000
vt 0.625000 0.500000
vt 0.500000 0.500000
vt 0.500000 0.625000
vt 0.625000 0.625000
vt 0.625000 0.750000
vt 0.500000 0.750000
vt 0.500000 0.937500
vt 0.625000 0.937500
vt 0.625000 1.000000
vt 0.500000 1.000000
vt 0.250000 0.625000
vt 0.375000 0.625000
vt 0.375000 0.750000
vt 0.250000 0.750000
vt 0.812500 0.625000
vt 0.875000 0.625000
vt 0.875000 0.750000
vt 0.812500 0.750000
vt 0.812500 0.500000
vt 0.875000 0.500000
vt 0.250000 0.500000
vt 0.375000 0.500000
vt 0.500000 0.000000
vt 0.625000 0.000000
vt 0.375000 0.000000
vt 0.375000 0.125000
vt 0.375000 0.937500
vt 0.375000 1.000000
vt 0.375000 0.375000
vt 0.375000 0.250000
vt 0.375000 0.312500
vt 0.500000 0.312500
vt 0.500000 0.875000
vt 0.375000 0.875000
vt 0.187500 0.500000
vt 0.187500 0.625000
vt 0.750000 0.500000
vt 0.750000 0.625000
vt 0.750000 0.750000
vt 0.187500 0.750000
vt 0.625000 0.875000
vt 0.625000 0.312500
vt 0.125000 0.625000
vt 0.125000 0.750000
vt 0.125000 0.500000
s 0
f 18/1/1 10/2/1 4/3/1 14/4/1
f 26/5/2 20/6/2 8/7/2 15/8/2
f 17/9/3 12/10/3 6/11/3 16/12/3
f 30/13/4 28/14/4 2/15/4 13/16/4
f 24/17/5 11/18/5 5/19/5 21/20/5
f 33/21/6 10/22/6 2/23/6 28/24/6
f 31/25/7 4/26/7 10/22/7 33/21/7
f 19/27/8 7/28/8 11/18/8 24/17/8
f 15/8/9 8/7/9 12/10/9 17/9/9
f 13/29/10 2/30/10 10/2/10 18/1/10
f 1/31/11 13/29/11 18/1/11 9/32/11
f 7/28/12 15/8/12 17/9/12 11/18/12
f 32/33/13 30/13/13 13/16/13 1/34/13
f 11/18/14 17/9/14 16/12/14 5/19/14
f 19/35/15 26/5/15 15/8/15 7/28/15
f 9/32/16 18/1/16 14/4/16 3/36/16
f 27/37/17 34/38/17 26/5/17 19/35/17
f 5/19/18 16/12/18 25/39/18 21/40/18
f 27/41/8 19/27/8 24/17/8 29/42/8
f 8/7/19 20/43/19 23/44/19 12/10/19
f 12/10/20 23/44/20 22/45/20 6/11/20
f 29/42/21 24/17/21 21/20/21 32/46/21
f 16/12/22 6/11/22 22/47/22 25/39/22
f 34/38/23 31/48/23 20/6/23 26/5/23
f 14/4/24 4/3/24 31/48/24 34/38/24
f 9/49/25 29/42/25 32/46/25 1/50/25
f 3/51/8 27/41/8 29/42/8 9/49/8
f 3/36/26 14/4/26 34/38/26 27/37/26
f 21/40/27 25/39/27 30/13/27 32/33/27
f 20/43/28 31/25/28 33/21/28 23/44/28
f 23/44/29 33/21/29 28/24/29 22/45/29
f 25/39/30 22/47/30 28/14/30 30/13/30
l 36 35
