# Blender 4.5.4 LTS
# www.blender.org
mtllib IceSpikeRow_01.mtl
o Cube
v 1.001149 1.021262 -6.649969
v 1.951629 -1.556580 -7.524159
v 0.883876 1.641002 6.410520
v 1.951798 -1.528934 6.987519
v -1.100615 1.662927 -6.411576
v -1.772813 -0.951972 -7.056659
v -0.970236 1.000000 6.865188
v -2.029078 -1.280812 7.259072
v -0.082752 -1.596298 -8.345734
v -0.150915 2.167597 6.724887
v 0.208632 -1.195566 8.059704
v -0.082752 1.000000 -7.024462
v -2.041880 -1.644659 0.016060
v 0.652738 1.000000 0.016060
v -0.545609 1.000000 0.016060
v 2.777398 -0.794790 0.016060
v 0.636418 -2.482089 0.262475
v 0.017287 2.193516 0.176752
v -2.744790 -1.881217 3.539384
v 0.613175 1.000000 4.060373
v 0.334766 -2.879954 3.539384
v -0.152604 1.000000 3.539384
v -0.923088 1.000000 3.539384
v 2.506509 -1.445377 3.539384
v -0.627032 0.198645 -3.507264
v 2.837649 -1.482100 -3.507264
v -2.390945 -1.461778 -3.749729
v 1.021636 0.111038 -3.507264
v 0.369722 -2.817880 -3.507264
v 0.068668 2.579713 -3.507264
v -1.539217 1.000000 -5.268927
v 2.759986 -1.403553 -5.268927
v -2.242798 -1.062651 -5.370117
v 1.465482 1.409450 -5.268927
v -0.365878 -2.705438 -5.268927
v -0.152604 8.138290 -5.268927
v -3.040200 -1.616443 5.709066
v 1.475486 1.000000 5.301046
v -0.414443 -2.431377 5.707952
v -0.152604 6.342639 5.301046
v -1.252422 2.105793 5.299996
v 2.435795 -1.890988 5.364904
v -1.841129 0.341234 1.777722
v 3.008413 -1.230127 1.962194
v -2.458037 -1.812059 1.777722
v 1.731615 1.933357 1.777722
v -0.152604 -2.624095 1.777722
v -0.152604 9.488257 1.777722
v -2.259330 -1.550147 -1.745602
v 1.714545 1.637686 -1.475371
v -0.152604 -2.679123 -1.745602
v -0.152604 7.243193 -1.745602
v -1.342028 0.355571 -1.745602
v 3.215685 -1.197883 -1.395627
v 1.559560 0.032422 -6.971798
v -1.746568 0.000000 7.150080
v 1.716615 0.320501 6.736614
v -1.636089 0.331464 -6.838969
v -0.082752 0.000000 -7.869249
v 0.028859 0.583798 7.633349
v 1.658739 0.000000 0.016060
v -1.808185 0.000000 0.016060
v -1.918237 0.000000 3.539384
v 1.717726 0.000000 3.799879
v 1.921957 -0.444481 -3.507264
v -1.771930 -0.400677 -3.507264
v 2.566018 0.204725 -5.268927
v -2.056811 0.000000 -5.268927
v -2.299086 0.552897 5.504531
v 2.308225 0.000000 5.301046
v 2.567945 0.466679 1.869958
v -2.226205 -0.329383 1.777722
v -1.899505 -0.322214 -1.745602
v 2.557450 0.318843 -1.214501
vn -0.9130 0.2369 0.3320
vn -0.4136 0.4587 0.7865
vn -0.8951 0.4275 -0.1268
vn 0.2108 -0.9388 0.2724
vn 0.7939 0.5903 0.1461
vn 0.3456 0.5451 -0.7638
vn -0.3149 0.5093 -0.8009
vn -0.1425 -0.8602 0.4897
vn 0.4690 0.4789 0.7420
vn 0.4118 0.2943 0.8625
vn 0.6903 0.2776 0.6681
vn -0.3826 -0.9151 0.1270
vn 0.5851 0.5351 0.6094
vn 0.4946 -0.8633 0.1008
vn -0.7042 0.6945 -0.1477
vn -0.9202 0.1589 0.3579
vn -0.7347 0.5566 -0.3878
vn -0.5544 0.1691 0.8149
vn -0.3180 -0.9456 -0.0691
vn 0.6979 0.5152 0.4974
vn 0.4684 -0.8751 -0.1214
vn -0.8986 0.1659 0.4062
vn -0.8436 0.1639 0.5114
vn 0.4219 -0.8948 -0.1459
vn 0.5616 0.6384 0.5263
vn -0.5410 -0.8404 -0.0332
vn 0.6534 0.2522 0.7138
vn -0.5888 0.7848 -0.1932
vn 0.3138 0.2296 -0.9213
vn -0.5446 -0.7717 -0.3283
vn 0.6870 0.5832 -0.4336
vn 0.3834 -0.9205 -0.0750
vn -0.9486 0.1843 -0.2572
vn -0.6247 0.6493 0.4338
vn -0.6733 0.5709 0.4699
vn 0.5427 0.2630 -0.7977
vn -0.3019 -0.9497 0.0835
vn 0.6513 0.6758 -0.3451
vn 0.3694 -0.9261 0.0765
vn -0.9167 0.2380 -0.3210
vn -0.8225 0.1518 -0.5481
vn 0.5009 -0.8632 -0.0632
vn 0.6747 0.4831 -0.5581
vn -0.2991 -0.9334 -0.1981
vn 0.1605 0.2152 -0.9633
vn -0.7678 0.6344 0.0893
vn -0.6775 0.7349 -0.0309
vn -0.9101 0.1572 -0.3834
vn 0.4263 -0.8974 0.1139
vn 0.6685 0.5525 -0.4979
vn -0.4531 -0.8908 -0.0351
vn 0.7157 0.2763 -0.6415
vn -0.2854 0.3093 0.9072
vn 0.7966 0.2427 -0.5537
vn 0.8414 0.2098 0.4981
vn -0.1653 0.2077 -0.9641
vn -0.6939 0.2357 0.6804
vn 0.8395 0.2565 -0.4790
vn 0.8973 0.2158 0.3851
vn -0.3969 0.2155 -0.8922
vn 0.9050 0.2176 -0.3655
vn -0.6769 0.1978 0.7090
vn -0.7267 0.2123 -0.6533
vn 0.7252 0.2720 0.6326
vn 0.7865 0.1962 -0.5856
vn -0.0000 0.2032 0.9791
vn -0.0000 0.3132 -0.9497
vn 0.9052 0.2758 0.3233
vn -0.2751 -0.8868 0.3715
vn 0.1012 -0.8915 0.4417
vn -0.6348 -0.7391 -0.2254
vn 0.1488 -0.9346 -0.3232
vn 0.8005 0.5150 -0.3067
vn -0.9767 0.2018 0.0726
vn -0.9538 0.3001 -0.0164
vn 0.8246 0.5067 -0.2516
vn 0.9563 0.2693 -0.1133
vn -0.8511 0.2921 0.4363
vn -0.9348 0.3354 0.1171
vn 0.8765 0.2334 -0.4211
vn -0.9195 0.3930 0.0020
vn 0.8991 0.3771 0.2224
vn 0.8628 0.3164 0.3942
vn -0.9140 0.3428 -0.2173
vn -0.9673 0.1440 -0.2087
vn 0.7522 0.5498 0.3631
vn 0.5139 0.2138 0.8308
vn -0.5217 0.2233 -0.8234
vn 0.3951 0.3260 -0.8588
vn 0.9447 0.1174 0.3061
vn -0.9569 0.1642 -0.2394
vn -0.3262 0.1735 0.9292
vt 0.750000 0.718750
vt 0.875000 0.718750
vt 0.875000 0.750000
vt 0.500000 0.875000
vt 0.625000 0.875000
vt 0.625000 1.000000
vt 0.500000 1.000000
vt 0.500000 0.218750
vt 0.625000 0.218750
vt 0.625000 0.250000
vt 0.500000 0.250000
vt 0.250000 0.718750
vt 0.375000 0.718750
vt 0.375000 0.750000
vt 0.500000 0.718750
vt 0.625000 0.718750
vt 0.625000 0.750000
vt 0.500000 0.750000
vt 0.500000 0.375000
vt 0.625000 0.375000
vt 0.625000 0.500000
vt 0.500000 0.500000
vt 0.250000 0.750000
vt 0.125000 0.750000
vt 0.750000 0.750000
vt 0.750000 0.593750
vt 0.750000 0.625000
vt 0.625000 0.625000
vt 0.125000 0.593750
vt 0.250000 0.593750
vt 0.250000 0.625000
vt 0.125000 0.625000
vt 0.500000 0.593750
vt 0.625000 0.593750
vt 0.500000 0.625000
vt 0.375000 0.593750
vt 0.375000 0.625000
vt 0.500000 0.093750
vt 0.625000 0.093750
vt 0.625000 0.125000
vt 0.500000 0.125000
vt 0.875000 0.593750
vt 0.875000 0.625000
vt 0.500000 0.031250
vt 0.625000 0.031250
vt 0.625000 0.062500
vt 0.500000 0.062500
vt 0.750000 0.656250
vt 0.750000 0.687500
vt 0.625000 0.687500
vt 0.125000 0.656250
vt 0.250000 0.656250
vt 0.250000 0.687500
vt 0.125000 0.687500
vt 0.500000 0.656250
vt 0.625000 0.656250
vt 0.500000 0.687500
vt 0.375000 0.656250
vt 0.375000 0.687500
vt 0.875000 0.656250
vt 0.875000 0.687500
vt 0.750000 0.531250
vt 0.875000 0.531250
vt 0.875000 0.562500
vt 0.250000 0.531250
vt 0.375000 0.531250
vt 0.375000 0.562500
vt 0.250000 0.562500
vt 0.500000 0.531250
vt 0.625000 0.531250
vt 0.625000 0.562500
vt 0.500000 0.562500
vt 0.125000 0.531250
vt 0.125000 0.562500
vt 0.750000 0.562500
vt 0.500000 0.156250
vt 0.625000 0.156250
vt 0.625000 0.187500
vt 0.500000 0.187500
vt 0.750000 0.500000
vt 0.125000 0.500000
vt 0.250000 0.500000
vt 0.375000 0.500000
vt 0.875000 0.500000
vt 0.500000 0.000000
vt 0.625000 0.000000
vt 0.125000 0.718750
vt 0.375000 0.125000
vt 0.375000 0.156250
vt 0.375000 0.062500
vt 0.375000 0.093750
vt 0.375000 0.000000
vt 0.375000 0.031250
vt 0.375000 0.187500
vt 0.375000 0.218750
vt 0.375000 0.875000
vt 0.375000 0.250000
vt 0.375000 0.375000
vt 0.375000 1.000000
s 0
usemtl Material
f 40/1/1 41/2/1 7/3/1
f 60/4/2 10/5/2 7/6/2 56/7/2
f 68/8/3 31/9/3 5/10/3 58/11/3
f 39/12/4 42/13/4 4/14/4
f 70/15/5 38/16/5 3/17/5 57/18/5
f 59/19/6 12/20/6 1/21/6 55/22/6
f 58/11/7 5/10/7 12/20/7 59/19/7
f 39/12/8 11/23/8 8/24/8
f 57/18/9 3/17/9 10/5/9 60/4/9
f 40/1/10 10/25/10 3/17/10
f 52/26/11 18/27/11 14/28/11
f 49/29/12 51/30/12 17/31/12 13/32/12
f 74/33/13 50/34/13 14/28/13 61/35/13
f 51/30/14 54/36/14 16/37/14 17/31/14
f 72/38/15 43/39/15 15/40/15 62/41/15
f 52/26/16 53/42/16 15/43/16
f 69/44/17 41/45/17 23/46/17 63/47/17
f 48/48/18 22/49/18 20/50/18
f 45/51/19 47/52/19 21/53/19 19/54/19
f 71/55/20 46/56/20 20/50/20 64/57/20
f 47/52/21 44/58/21 24/59/21 21/53/21
f 48/48/22 43/60/22 23/61/22
f 36/62/23 31/63/23 25/64/23
f 35/65/24 32/66/24 26/67/24 29/68/24
f 67/69/25 34/70/25 28/71/25 65/72/25
f 33/73/26 35/65/26 29/68/26 27/74/26
f 36/62/27 30/75/27 28/71/27
f 73/76/28 53/77/28 25/78/28 66/79/28
f 1/21/29 12/80/29 36/62/29
f 6/81/30 9/82/30 35/65/30
f 55/22/31 1/21/31 34/70/31 67/69/31
f 2/83/32 32/66/32 35/65/32
f 5/84/33 31/63/33 36/62/33
f 66/79/34 25/78/34 31/9/34 68/8/34
f 56/85/35 7/86/35 41/45/35 69/44/35
f 20/50/36 22/49/36 40/1/36
f 19/54/37 21/53/37 39/12/37 37/87/37
f 64/57/38 20/50/38 38/16/38 70/15/38
f 21/53/39 24/59/39 42/13/39 39/12/39
f 23/61/40 41/2/40 40/1/40
f 15/43/41 43/60/41 48/48/41
f 17/31/42 16/37/42 44/58/42 47/52/42
f 61/35/43 14/28/43 46/56/43 71/55/43
f 13/32/44 17/31/44 47/52/44 45/51/44
f 14/28/45 18/27/45 48/48/45
f 63/47/46 23/46/46 43/39/46 72/38/46
f 62/41/47 15/40/47 53/77/47 73/76/47
f 25/64/48 53/42/48 52/26/48
f 29/68/49 26/67/49 54/36/49 51/30/49
f 65/72/50 28/71/50 50/34/50 74/33/50
f 27/74/51 29/68/51 51/30/51 49/29/51
f 28/71/52 30/75/52 52/26/52
f 10/25/53 40/1/53 7/3/53
f 38/16/54 20/50/54 40/1/54
f 46/56/55 48/48/55 20/50/55
f 18/27/56 15/43/56 48/48/56
f 18/27/57 52/26/57 15/43/57
f 50/34/58 28/71/58 52/26/58
f 34/70/59 36/62/59 28/71/59
f 12/80/60 5/84/60 36/62/60
f 34/70/61 1/21/61 36/62/61
f 30/75/62 36/62/62 25/64/62
f 30/75/63 25/64/63 52/26/63
f 50/34/64 52/26/64 14/28/64
f 46/56/65 14/28/65 48/48/65
f 22/49/66 48/48/66 23/61/66
f 22/49/67 23/61/67 40/1/67
f 38/16/68 40/1/68 3/17/68
f 37/87/69 39/12/69 8/24/69
f 11/23/70 39/12/70 4/14/70
f 33/73/71 6/81/71 35/65/71
f 9/82/72 2/83/72 35/65/72
f 26/67/73 65/72/73 74/33/73 54/36/73
f 13/88/74 62/41/74 73/76/74 49/89/74
f 19/90/75 63/47/75 72/38/75 45/91/75
f 16/37/76 61/35/76 71/55/76 44/58/76
f 24/59/77 64/57/77 70/15/77 42/13/77
f 8/92/78 56/85/78 69/44/78 37/93/78
f 27/94/79 66/79/79 68/8/79 33/95/79
f 2/83/80 55/22/80 67/69/80 32/66/80
f 49/89/81 73/76/81 66/79/81 27/94/81
f 32/66/82 67/69/82 65/72/82 26/67/82
f 44/58/83 71/55/83 64/57/83 24/59/83
f 37/93/84 69/44/84 63/47/84 19/90/84
f 45/91/85 72/38/85 62/41/85 13/88/85
f 54/36/86 74/33/86 61/35/86 16/37/86
f 4/14/87 57/18/87 60/4/87 11/96/87
f 6/97/88 58/11/88 59/19/88 9/98/88
f 9/98/89 59/19/89 55/22/89 2/83/89
f 42/13/90 70/15/90 57/18/90 4/14/90
f 33/95/91 68/8/91 58/11/91 6/97/91
f 11/96/92 60/4/92 56/7/92 8/99/92
