# Blender 4.5.4 LTS
# www.blender.org
mtllib IceSpike_02.mtl
o Cube
v 0.514692 3.484737 -0.479050
v 0.724963 -1.000000 -0.669957
v 0.445944 3.484737 0.443572
v 0.727029 -1.000000 0.716637
v -0.536365 3.484737 -0.490167
v -0.717298 -1.000000 -0.688268
v -0.339462 3.697395 0.323874
v -0.634329 -1.000000 0.688055
v -1.000000 -1.000000 0.000000
v 0.683553 3.878147 0.007583
v -0.568894 3.484737 0.033921
v 1.000000 -1.000000 0.000000
v -0.002614 -1.000000 -0.895346
v -0.033766 2.771181 0.615306
v 0.000870 -0.883273 0.809369
v -0.051710 3.484737 -0.612301
v 0.000000 -1.359378 0.000000
v 0.000000 6.559024 0.000000
v 0.748108 0.000000 -0.531600
v -0.769152 -0.000000 0.755300
v 0.761663 0.000000 0.660400
v -0.698887 0.000000 -0.664516
v 0.693311 0.000000 0.000000
v -1.184869 0.000000 0.000000
v 0.000000 0.000000 -1.054100
v 0.000000 0.000000 1.000000
v -0.831954 0.500000 0.821347
v 0.559316 0.500000 -0.706510
v 0.584698 0.500000 0.642258
v -0.622916 0.500000 -0.630547
v 1.000000 0.500000 0.000000
v -1.000000 0.500000 0.000000
v -0.104448 0.500000 -0.806099
v 0.000000 0.500000 1.000000
v 0.896645 -0.500000 -0.853702
v 0.853574 -0.500000 0.873274
v -0.888815 -0.500000 -0.871760
v 1.000000 -0.500000 0.000000
v -1.000000 -0.500000 0.000000
v 0.000000 -0.500000 -0.853697
v 0.000000 -0.500000 1.085363
v -0.845058 -0.500000 0.851848
v -0.845058 -1.000000 0.351848
v 0.645376 3.484737 0.283749
v -0.428221 3.905058 0.164946
v 0.681238 -0.736751 0.358556
v 0.000000 -1.254092 0.500000
v -1.000000 0.000000 0.500000
v 1.000000 0.000000 0.500000
v -0.744512 0.500000 0.410673
v 0.922600 0.500000 0.433931
v 1.000000 -0.500000 0.500000
v -1.000000 -0.500000 0.500000
v -0.590203 3.899504 -0.245084
v 0.849622 -1.000000 -0.321916
v -0.857743 -1.000000 -0.324787
v 0.520860 4.119047 -0.208393
v 0.000000 -1.254092 -0.500000
v 1.000000 0.000000 -0.500000
v -1.000000 0.000000 -0.500000
v 0.874688 0.500000 -0.369717
v -0.863746 0.500000 -0.386502
v -1.000000 -0.500000 -0.500000
v 1.000000 -0.500000 -0.500000
v 0.392243 -1.000000 0.888677
v 0.126555 3.926234 -0.566611
v 0.349622 -1.000000 -0.821916
v 0.162754 4.351549 0.483839
v 0.500000 -1.254092 0.000000
v 0.324102 -0.119586 0.657075
v 0.500000 0.000000 -1.000000
v 0.324174 0.500000 0.820101
v 0.374688 0.500000 -0.869717
v 0.500000 -0.500000 -1.000000
v 0.500000 -0.500000 1.000000
v 0.500000 -1.254092 0.500000
v 0.500000 -1.254092 -0.500000
v -0.357743 -1.000000 -0.824787
v -0.187897 3.484737 0.581812
v -0.500000 -1.254092 0.000000
v -0.345058 -1.000000 0.851848
v -0.184145 3.882245 -0.438948
v -0.500000 0.000000 -1.000000
v -0.500000 0.000000 1.000000
v -0.363746 0.500000 -0.886502
v -0.415977 0.500000 0.719519
v -0.500000 -0.500000 1.000000
v -0.500000 -0.500000 -1.000000
v -0.500000 -1.254092 0.500000
v -0.500000 -1.254092 -0.500000
v -0.483818 1.638834 0.483913
v 0.484244 2.054280 -0.487378
v 0.562355 1.554416 0.654141
v -0.579640 2.054280 -0.560357
v 0.841776 2.250985 0.003792
v -0.793977 1.560386 -0.111352
v -0.054602 2.054280 -0.827055
v -0.026438 1.493225 0.706823
v -0.612748 2.429761 0.173714
v 0.783988 2.054280 0.358840
v 0.841619 2.024623 -0.281353
v -0.726974 2.261663 -0.315793
v 0.243464 2.487686 0.651970
v 0.250621 2.275028 -0.718164
v -0.273945 1.871043 -0.662725
v -0.301937 2.054280 0.650666
vn -0.8940 0.1700 0.4145
vn -0.8049 0.0980 0.5852
vn -0.8865 0.0730 -0.4570
vn 0.7225 -0.6895 0.0515
vn 0.6643 0.1132 0.7389
vn 0.5048 0.0600 -0.8611
vn 0.9443 0.1278 -0.3032
vn 0.5257 -0.8452 -0.0962
vn -0.9056 0.0925 0.4139
vn -0.9271 0.1752 0.3313
vn -0.2355 0.1936 -0.9524
vn -0.1041 -0.9891 -0.1041
vn -0.6513 0.1131 -0.7503
vn 0.1349 -0.7358 0.6636
vn -0.0489 0.0809 0.9955
vn -0.5606 0.1376 0.8166
vn 0.4610 0.4610 0.7583
vn 0.0900 -0.1957 -0.9765
vn -0.9675 -0.1789 0.1789
vn 0.9174 0.2814 0.2814
vn 0.6542 0.3182 -0.6862
vn 0.7956 0.1952 0.5736
vn -0.7640 0.2668 -0.5874
vn -0.5348 0.1213 0.8362
vn 0.6108 -0.1141 0.7835
vn 0.0326 0.3389 -0.9403
vn -0.8254 0.3991 0.3991
vn 0.9592 -0.2000 0.2000
vn 0.8033 0.2278 -0.5504
vn 0.5277 0.2037 0.8247
vn -0.5846 0.2384 -0.7755
vn -0.1996 0.2095 0.9572
vn -0.4037 -0.4037 0.8210
vn -0.8745 -0.3817 -0.2993
vn 0.8649 -0.4983 -0.0604
vn 0.3282 -0.4131 -0.8495
vn 0.9681 -0.1771 -0.1771
vn -0.9685 -0.1762 0.1762
vn 0.0876 -0.1199 -0.9889
vn -0.0457 -0.3965 0.9169
vn 0.6128 0.1992 0.7647
vn -0.0424 0.1645 -0.9855
vn -0.7873 0.1608 0.5952
vn 0.8164 0.2199 -0.5339
vn -0.7994 -0.4248 0.4248
vn 0.7972 -0.4269 0.4269
vn 0.9447 -0.2319 -0.2319
vn -0.9598 0.1898 0.2067
vn 0.9174 0.2814 -0.2814
vn -0.8384 0.1151 0.5327
vn -0.1041 -0.9891 0.1041
vn -0.8007 0.1027 0.5902
vn 0.9658 0.0993 0.2397
vn 0.7134 -0.5505 0.4337
vn 0.8774 -0.3857 -0.2851
vn -0.9715 -0.1676 -0.1676
vn -0.8900 0.3224 -0.3224
vn 0.5398 0.1325 -0.8313
vn -0.9675 -0.1789 -0.1789
vn 0.6987 0.3113 -0.6442
vn -0.0480 -0.8117 -0.5821
vn 0.4759 -0.7396 -0.4759
vn 0.7436 0.0766 -0.6642
vn -0.9882 0.0930 0.1214
vn 0.0504 -0.8098 -0.5845
vn 0.1041 -0.9891 0.1041
vn 0.3771 -0.3211 0.8687
vn -0.0846 -0.1220 -0.9889
vn -0.0091 0.3520 -0.9360
vn 0.2552 -0.0843 0.9632
vn -0.0900 -0.1957 -0.9765
vn 0.0485 0.5437 0.8379
vn 0.3912 0.1115 0.9135
vn 0.1041 -0.9891 -0.1041
vn 0.1462 0.1224 -0.9817
vn -0.1554 -0.7477 0.6456
vn -0.4689 -0.7485 -0.4689
vn -0.5252 -0.8456 0.0955
vn -0.3050 -0.4049 -0.8620
vn 0.0137 -0.4309 0.9023
vn -0.2810 0.2810 0.9177
vn -0.7655 0.2499 -0.5929
vn -0.0847 0.0847 0.9928
vn -0.5964 0.2699 -0.7559
vn -0.5263 -0.6678 0.5263
vn -0.1059 0.0887 -0.9904
vn -0.5212 -0.8487 -0.0899
vn -0.0295 0.0602 0.9977
vn 0.8706 0.2232 0.4384
vn 0.8820 0.2237 -0.4149
vn 0.4356 0.2093 -0.8754
vn -0.5523 0.1718 -0.8158
vn -0.7956 0.2283 -0.5611
vn -0.7567 0.1615 0.6336
vn 0.4524 0.1391 0.8809
vn 0.7095 0.2004 0.6756
vn -0.3364 0.1438 0.9307
vn -0.5070 0.1090 -0.8550
vn 0.0463 0.0402 -0.9981
vn 0.3772 0.0602 0.9242
vn -0.9734 0.1154 -0.1979
vn 0.6275 0.0992 -0.7723
vn 0.9774 0.0919 0.1904
vn -0.9418 0.1981 0.2716
vn 0.1258 0.1561 0.9797
vn -0.2008 0.0773 -0.9766
vn -0.9103 0.1479 0.3866
vn 0.9760 0.0629 -0.2087
vn 0.7135 0.1195 -0.6904
vn 0.6388 0.0580 0.7672
vn -0.7667 0.0688 -0.6383
vn -0.2315 0.1838 0.9553
vt 0.750000 0.625000
vt 0.875000 0.625000
vt 0.875000 0.687500
vt 0.593750 0.937500
vt 0.625000 0.937500
vt 0.625000 1.000000
vt 0.593750 1.000000
vt 0.593750 0.187500
vt 0.625000 0.187500
vt 0.625000 0.250000
vt 0.593750 0.250000
vt 0.312500 0.687500
vt 0.375000 0.687500
vt 0.375000 0.750000
vt 0.312500 0.750000
vt 0.593750 0.687500
vt 0.625000 0.687500
vt 0.625000 0.750000
vt 0.593750 0.750000
vt 0.593750 0.437500
vt 0.625000 0.437500
vt 0.625000 0.500000
vt 0.593750 0.500000
vt 0.593750 0.562500
vt 0.625000 0.562500
vt 0.625000 0.625000
vt 0.593750 0.625000
vt 0.312500 0.562500
vt 0.375000 0.562500
vt 0.375000 0.625000
vt 0.312500 0.625000
vt 0.593750 0.062500
vt 0.625000 0.062500
vt 0.625000 0.125000
vt 0.593750 0.125000
vt 0.875000 0.562500
vt 0.687500 0.500000
vt 0.750000 0.500000
vt 0.187500 0.562500
vt 0.250000 0.562500
vt 0.250000 0.625000
vt 0.187500 0.625000
vt 0.593750 0.312500
vt 0.625000 0.312500
vt 0.625000 0.375000
vt 0.593750 0.375000
vt 0.187500 0.687500
vt 0.250000 0.687500
vt 0.250000 0.750000
vt 0.187500 0.750000
vt 0.593750 0.812500
vt 0.625000 0.812500
vt 0.625000 0.875000
vt 0.593750 0.875000
vt 0.750000 0.750000
vt 0.687500 0.750000
vt 0.437500 0.812500
vt 0.500000 0.812500
vt 0.500000 0.875000
vt 0.437500 0.875000
vt 0.437500 0.312500
vt 0.500000 0.312500
vt 0.500000 0.375000
vt 0.437500 0.375000
vt 0.437500 0.062500
vt 0.500000 0.062500
vt 0.500000 0.125000
vt 0.437500 0.125000
vt 0.437500 0.562500
vt 0.500000 0.562500
vt 0.500000 0.625000
vt 0.437500 0.625000
vt 0.437500 0.437500
vt 0.500000 0.437500
vt 0.500000 0.500000
vt 0.437500 0.500000
vt 0.437500 0.687500
vt 0.500000 0.687500
vt 0.500000 0.750000
vt 0.437500 0.750000
vt 0.437500 0.187500
vt 0.500000 0.187500
vt 0.500000 0.250000
vt 0.437500 0.250000
vt 0.437500 0.937500
vt 0.500000 0.937500
vt 0.500000 1.000000
vt 0.437500 1.000000
vt 0.562500 0.812500
vt 0.562500 0.875000
vt 0.562500 0.312500
vt 0.562500 0.375000
vt 0.562500 0.062500
vt 0.562500 0.125000
vt 0.562500 0.562500
vt 0.562500 0.625000
vt 0.562500 0.437500
vt 0.562500 0.500000
vt 0.562500 0.687500
vt 0.562500 0.750000
vt 0.562500 0.187500
vt 0.562500 0.250000
vt 0.562500 0.937500
vt 0.562500 1.000000
vt 0.375000 0.937500
vt 0.375000 1.000000
vt 0.375000 0.187500
vt 0.375000 0.250000
vt 0.375000 0.437500
vt 0.375000 0.500000
vt 0.375000 0.062500
vt 0.375000 0.125000
vt 0.375000 0.312500
vt 0.375000 0.375000
vt 0.375000 0.812500
vt 0.375000 0.875000
vt 0.812500 0.500000
vt 0.875000 0.500000
vt 0.875000 0.750000
vt 0.812500 0.750000
vt 0.375000 0.000000
vt 0.437500 0.000000
vt 0.500000 0.000000
vt 0.562500 0.000000
vt 0.593750 0.000000
vt 0.625000 0.000000
vt 0.187500 0.500000
vt 0.250000 0.500000
vt 0.312500 0.500000
vt 0.125000 0.500000
vt 0.125000 0.562500
vt 0.125000 0.625000
vt 0.125000 0.687500
vt 0.125000 0.750000
s 0
usemtl Material
f 18/1/1 11/2/1 45/3/1
f 106/4/2 79/5/2 7/6/2 91/7/2
f 102/8/3 54/9/3 5/10/3 94/11/3
f 76/12/4 46/13/4 4/14/4 65/15/4
f 100/16/5 44/17/5 3/18/5 93/19/5
f 104/20/6 66/21/6 1/22/6 92/23/6
f 101/24/7 57/25/7 10/26/7 95/27/7
f 77/28/8 55/29/8 12/30/8 69/31/8
f 99/32/9 45/33/9 11/34/9 96/35/9
f 54/36/10 11/2/10 18/1/10
f 66/37/11 16/38/11 18/1/11
f 90/39/12 58/40/12 17/41/12 80/42/12
f 105/43/13 82/44/13 16/45/13 97/46/13
f 89/47/14 47/48/14 15/49/14 81/50/14
f 103/51/15 68/52/15 14/53/15 98/54/15
f 18/1/16 14/55/16 68/56/16
f 75/57/17 70/58/17 26/59/17 41/60/17
f 88/61/18 83/62/18 25/63/18 40/64/18
f 53/65/19 48/66/19 24/67/19 39/68/19
f 64/69/20 59/70/20 23/71/20 38/72/20
f 74/73/21 71/74/21 19/75/21 35/76/21
f 52/77/22 49/78/22 21/79/22 36/80/22
f 63/81/23 60/82/23 22/83/23 37/84/23
f 87/85/24 84/86/24 20/87/24 42/88/24
f 70/58/25 72/89/25 34/90/25 26/59/25
f 83/62/26 85/91/26 33/92/26 25/63/26
f 48/66/27 50/93/27 32/94/27 24/67/27
f 59/70/28 61/95/28 31/96/28 23/71/28
f 71/74/29 73/97/29 28/98/29 19/75/29
f 49/78/30 51/99/30 29/100/30 21/79/30
f 60/82/31 62/101/31 30/102/31 22/83/31
f 84/86/32 86/103/32 27/104/32 20/87/32
f 81/105/33 87/85/33 42/88/33 8/106/33
f 56/107/34 63/81/34 37/84/34 6/108/34
f 46/13/35 52/77/35 36/80/35 4/14/35
f 67/109/36 74/73/36 35/76/36 2/110/36
f 55/29/37 64/69/37 38/72/37 12/30/37
f 43/111/38 53/65/38 39/68/38 9/112/38
f 78/113/39 88/61/39 40/64/39 13/114/39
f 65/115/40 75/57/40 41/60/40 15/116/40
f 18/1/41 3/18/41 44/17/41
f 82/117/42 5/118/42 18/1/42
f 18/1/43 7/119/43 79/120/43
f 57/25/44 1/22/44 18/1/44
f 8/121/45 42/122/45 53/65/45 43/111/45
f 12/30/46 38/72/46 52/77/46 46/13/46
f 23/71/47 31/96/47 51/99/47 49/78/47
f 20/123/48 27/124/48 50/93/48 48/66/48
f 38/72/49 23/71/49 49/78/49 52/77/49
f 42/122/50 20/123/50 48/66/50 53/65/50
f 80/42/51 17/41/51 47/48/51 89/47/51
f 91/125/52 7/126/52 45/33/52 99/32/52
f 95/27/53 10/26/53 44/17/53 100/16/53
f 69/31/54 12/30/54 46/13/54 76/12/54
f 2/110/55 35/76/55 64/69/55 55/29/55
f 9/112/56 39/68/56 63/81/56 56/107/56
f 24/67/57 32/94/57 62/101/57 60/82/57
f 19/75/58 28/98/58 61/95/58 59/70/58
f 39/68/59 24/67/59 60/82/59 63/81/59
f 35/76/60 19/75/60 59/70/60 64/69/60
f 78/127/61 13/128/61 58/40/61 90/39/61
f 67/129/62 2/110/62 55/29/62 77/28/62
f 92/23/63 1/22/63 57/25/63 101/24/63
f 96/35/64 11/34/64 54/9/64 102/8/64
f 13/128/65 67/129/65 77/28/65 58/40/65
f 17/41/66 69/31/66 76/12/66 47/48/66
f 4/14/67 36/80/67 75/57/67 65/115/67
f 13/114/68 40/64/68 74/73/68 67/109/68
f 25/63/69 33/92/69 73/97/69 71/74/69
f 21/79/70 29/100/70 72/89/70 70/58/70
f 40/64/71 25/63/71 71/74/71 74/73/71
f 36/80/72 21/79/72 70/58/72 75/57/72
f 93/19/73 3/18/73 68/52/73 103/51/73
f 58/40/74 77/28/74 69/31/74 17/41/74
f 97/46/75 16/45/75 66/21/75 104/20/75
f 47/48/76 76/12/76 65/15/76 15/49/76
f 6/130/77 78/127/77 90/39/77 56/131/77
f 9/132/78 80/42/78 89/47/78 43/133/78
f 6/108/79 37/84/79 88/61/79 78/113/79
f 15/116/80 41/60/80 87/85/80 81/105/80
f 26/59/81 34/90/81 86/103/81 84/86/81
f 22/83/82 30/102/82 85/91/82 83/62/82
f 41/60/83 26/59/83 84/86/83 87/85/83
f 37/84/84 22/83/84 83/62/84 88/61/84
f 43/133/85 89/47/85 81/50/85 8/134/85
f 94/11/86 5/10/86 82/44/86 105/43/86
f 56/131/87 90/39/87 80/42/87 9/132/87
f 98/54/88 14/53/88 79/5/88 106/4/88
f 10/26/89 18/1/89 44/17/89
f 10/26/90 57/25/90 18/1/90
f 1/22/91 66/37/91 18/1/91
f 16/38/92 82/117/92 18/1/92
f 5/118/93 54/36/93 18/1/93
f 7/119/94 18/1/94 45/3/94
f 14/55/95 18/1/95 79/120/95
f 3/18/96 18/1/96 68/56/96
f 34/90/97 98/54/97 106/4/97 86/103/97
f 30/102/98 94/11/98 105/43/98 85/91/98
f 33/92/99 97/46/99 104/20/99 73/97/99
f 29/100/100 93/19/100 103/51/100 72/89/100
f 32/94/101 96/35/101 102/8/101 62/101/101
f 28/98/102 92/23/102 101/24/102 61/95/102
f 31/96/103 95/27/103 100/16/103 51/99/103
f 27/124/104 91/125/104 99/32/104 50/93/104
f 72/89/105 103/51/105 98/54/105 34/90/105
f 85/91/106 105/43/106 97/46/106 33/92/106
f 50/93/107 99/32/107 96/35/107 32/94/107
f 61/95/108 101/24/108 95/27/108 31/96/108
f 73/97/109 104/20/109 92/23/109 28/98/109
f 51/99/110 100/16/110 93/19/110 29/100/110
f 62/101/111 102/8/111 94/11/111 30/102/111
f 86/103/112 106/4/112 91/7/112 27/104/112
